%TF.GenerationSoftware,KiCad,Pcbnew,8.0.4*%
%TF.CreationDate,2025-03-11T16:32:05+07:00*%
%TF.ProjectId,Hoang_Trung_An_BTL,486f616e-675f-4547-9275-6e675f416e5f,rev?*%
%TF.SameCoordinates,Original*%
%TF.FileFunction,Legend,Top*%
%TF.FilePolarity,Positive*%
%FSLAX46Y46*%
G04 Gerber Fmt 4.6, Leading zero omitted, Abs format (unit mm)*
G04 Created by KiCad (PCBNEW 8.0.4) date 2025-03-11 16:32:05*
%MOMM*%
%LPD*%
G01*
G04 APERTURE LIST*
%ADD10C,0.100000*%
%ADD11C,0.150000*%
%ADD12C,0.120000*%
%ADD13C,0.152400*%
%ADD14C,0.508000*%
G04 APERTURE END LIST*
D10*
X226075312Y-92477180D02*
X226027693Y-92524800D01*
X226027693Y-92524800D02*
X225884836Y-92572419D01*
X225884836Y-92572419D02*
X225789598Y-92572419D01*
X225789598Y-92572419D02*
X225646741Y-92524800D01*
X225646741Y-92524800D02*
X225551503Y-92429561D01*
X225551503Y-92429561D02*
X225503884Y-92334323D01*
X225503884Y-92334323D02*
X225456265Y-92143847D01*
X225456265Y-92143847D02*
X225456265Y-92000990D01*
X225456265Y-92000990D02*
X225503884Y-91810514D01*
X225503884Y-91810514D02*
X225551503Y-91715276D01*
X225551503Y-91715276D02*
X225646741Y-91620038D01*
X225646741Y-91620038D02*
X225789598Y-91572419D01*
X225789598Y-91572419D02*
X225884836Y-91572419D01*
X225884836Y-91572419D02*
X226027693Y-91620038D01*
X226027693Y-91620038D02*
X226075312Y-91667657D01*
X226980074Y-92572419D02*
X226503884Y-92572419D01*
X226503884Y-92572419D02*
X226503884Y-91572419D01*
X227313408Y-92572419D02*
X227313408Y-91572419D01*
X227884836Y-92572419D02*
X227456265Y-92000990D01*
X227884836Y-91572419D02*
X227313408Y-92143847D01*
X225703884Y-90572419D02*
X225703884Y-89572419D01*
X225703884Y-89572419D02*
X225941979Y-89572419D01*
X225941979Y-89572419D02*
X226084836Y-89620038D01*
X226084836Y-89620038D02*
X226180074Y-89715276D01*
X226180074Y-89715276D02*
X226227693Y-89810514D01*
X226227693Y-89810514D02*
X226275312Y-90000990D01*
X226275312Y-90000990D02*
X226275312Y-90143847D01*
X226275312Y-90143847D02*
X226227693Y-90334323D01*
X226227693Y-90334323D02*
X226180074Y-90429561D01*
X226180074Y-90429561D02*
X226084836Y-90524800D01*
X226084836Y-90524800D02*
X225941979Y-90572419D01*
X225941979Y-90572419D02*
X225703884Y-90572419D01*
X226656265Y-90286704D02*
X227132455Y-90286704D01*
X226561027Y-90572419D02*
X226894360Y-89572419D01*
X226894360Y-89572419D02*
X227227693Y-90572419D01*
X227418170Y-89572419D02*
X227989598Y-89572419D01*
X227703884Y-90572419D02*
X227703884Y-89572419D01*
X225461027Y-83972419D02*
X225794360Y-84972419D01*
X225794360Y-84972419D02*
X226127693Y-83972419D01*
X227032455Y-84877180D02*
X226984836Y-84924800D01*
X226984836Y-84924800D02*
X226841979Y-84972419D01*
X226841979Y-84972419D02*
X226746741Y-84972419D01*
X226746741Y-84972419D02*
X226603884Y-84924800D01*
X226603884Y-84924800D02*
X226508646Y-84829561D01*
X226508646Y-84829561D02*
X226461027Y-84734323D01*
X226461027Y-84734323D02*
X226413408Y-84543847D01*
X226413408Y-84543847D02*
X226413408Y-84400990D01*
X226413408Y-84400990D02*
X226461027Y-84210514D01*
X226461027Y-84210514D02*
X226508646Y-84115276D01*
X226508646Y-84115276D02*
X226603884Y-84020038D01*
X226603884Y-84020038D02*
X226746741Y-83972419D01*
X226746741Y-83972419D02*
X226841979Y-83972419D01*
X226841979Y-83972419D02*
X226984836Y-84020038D01*
X226984836Y-84020038D02*
X227032455Y-84067657D01*
X228032455Y-84877180D02*
X227984836Y-84924800D01*
X227984836Y-84924800D02*
X227841979Y-84972419D01*
X227841979Y-84972419D02*
X227746741Y-84972419D01*
X227746741Y-84972419D02*
X227603884Y-84924800D01*
X227603884Y-84924800D02*
X227508646Y-84829561D01*
X227508646Y-84829561D02*
X227461027Y-84734323D01*
X227461027Y-84734323D02*
X227413408Y-84543847D01*
X227413408Y-84543847D02*
X227413408Y-84400990D01*
X227413408Y-84400990D02*
X227461027Y-84210514D01*
X227461027Y-84210514D02*
X227508646Y-84115276D01*
X227508646Y-84115276D02*
X227603884Y-84020038D01*
X227603884Y-84020038D02*
X227746741Y-83972419D01*
X227746741Y-83972419D02*
X227841979Y-83972419D01*
X227841979Y-83972419D02*
X227984836Y-84020038D01*
X227984836Y-84020038D02*
X228032455Y-84067657D01*
G36*
X220553065Y-120139929D02*
G01*
X220586600Y-120173465D01*
X220625312Y-120250888D01*
X220625312Y-120370138D01*
X220586600Y-120447561D01*
X220550454Y-120483708D01*
X220473033Y-120522419D01*
X220153884Y-120522419D01*
X220153884Y-120098609D01*
X220429104Y-120098609D01*
X220553065Y-120139929D01*
G37*
G36*
X220502837Y-119661130D02*
G01*
X220538981Y-119697275D01*
X220577693Y-119774698D01*
X220577693Y-119846329D01*
X220538981Y-119923752D01*
X220502837Y-119959897D01*
X220425414Y-119998609D01*
X220153884Y-119998609D01*
X220153884Y-119622419D01*
X220425414Y-119622419D01*
X220502837Y-119661130D01*
G37*
G36*
X225600684Y-119663739D02*
G01*
X225681837Y-119744892D01*
X225723374Y-119827966D01*
X225768169Y-120007145D01*
X225768169Y-120137692D01*
X225723374Y-120316870D01*
X225681837Y-120399944D01*
X225600683Y-120481098D01*
X225476723Y-120522419D01*
X225296741Y-120522419D01*
X225296741Y-119622419D01*
X225476723Y-119622419D01*
X225600684Y-119663739D01*
G37*
G36*
X227066615Y-119990638D02*
G01*
X227101502Y-120060412D01*
X227101502Y-120102856D01*
X226725312Y-120178094D01*
X226725312Y-120060412D01*
X226760198Y-119990638D01*
X226829973Y-119955752D01*
X226996842Y-119955752D01*
X227066615Y-119990638D01*
G37*
G36*
X231209472Y-119990638D02*
G01*
X231244359Y-120060412D01*
X231244359Y-120102856D01*
X230868169Y-120178094D01*
X230868169Y-120060412D01*
X230903055Y-119990638D01*
X230972830Y-119955752D01*
X231139699Y-119955752D01*
X231209472Y-119990638D01*
G37*
G36*
X232312613Y-120733530D02*
G01*
X219942773Y-120733530D01*
X219942773Y-119572419D01*
X220053884Y-119572419D01*
X220053884Y-120572419D01*
X220057690Y-120591553D01*
X220084750Y-120618613D01*
X220103884Y-120622419D01*
X220484836Y-120622419D01*
X220487292Y-120621930D01*
X220488381Y-120622293D01*
X220496108Y-120620176D01*
X220503970Y-120618613D01*
X220504781Y-120617801D01*
X220507197Y-120617140D01*
X220602434Y-120569522D01*
X220608761Y-120564611D01*
X220615430Y-120560155D01*
X220663049Y-120512535D01*
X220667502Y-120505869D01*
X220672414Y-120499541D01*
X220720033Y-120404303D01*
X220720694Y-120401887D01*
X220721506Y-120401076D01*
X220723069Y-120393214D01*
X220725186Y-120385487D01*
X220724823Y-120384398D01*
X220725312Y-120381942D01*
X220725312Y-120239085D01*
X220724823Y-120236628D01*
X220725186Y-120235540D01*
X220723069Y-120227812D01*
X220721506Y-120219951D01*
X220720694Y-120219139D01*
X220720033Y-120216724D01*
X220672414Y-120121486D01*
X220667502Y-120115157D01*
X220663048Y-120108491D01*
X220615429Y-120060873D01*
X220613346Y-120059481D01*
X220612833Y-120058455D01*
X220605872Y-120054487D01*
X220599208Y-120050034D01*
X220598060Y-120050034D01*
X220595885Y-120048794D01*
X220564724Y-120038407D01*
X220567810Y-120036345D01*
X220615429Y-119988727D01*
X220619883Y-119982060D01*
X220624795Y-119975732D01*
X220672414Y-119880494D01*
X220673075Y-119878078D01*
X220673887Y-119877267D01*
X220675450Y-119869405D01*
X220677567Y-119861678D01*
X220677204Y-119860589D01*
X220677693Y-119858133D01*
X220677693Y-119762895D01*
X220677204Y-119760438D01*
X220677567Y-119759350D01*
X220675450Y-119751622D01*
X220673887Y-119743761D01*
X220673075Y-119742949D01*
X220672414Y-119740534D01*
X220624795Y-119645296D01*
X220619883Y-119638967D01*
X220615429Y-119632301D01*
X220567810Y-119584683D01*
X220561148Y-119580231D01*
X220554815Y-119575316D01*
X220510753Y-119553285D01*
X220914833Y-119553285D01*
X220914833Y-119591553D01*
X220941893Y-119618613D01*
X220961027Y-119622419D01*
X221196741Y-119622419D01*
X221196741Y-120572419D01*
X221200547Y-120591553D01*
X221227607Y-120618613D01*
X221265875Y-120618613D01*
X221292935Y-120591553D01*
X221296741Y-120572419D01*
X221296741Y-119622419D01*
X221532455Y-119622419D01*
X221551589Y-119618613D01*
X221578649Y-119591553D01*
X221578649Y-119572419D01*
X221815789Y-119572419D01*
X221815789Y-120572419D01*
X221819595Y-120591553D01*
X221846655Y-120618613D01*
X221865789Y-120622419D01*
X222341979Y-120622419D01*
X222361113Y-120618613D01*
X222388173Y-120591553D01*
X222388173Y-120553285D01*
X222361113Y-120526225D01*
X222341979Y-120522419D01*
X221915789Y-120522419D01*
X221915789Y-120172332D01*
X222629119Y-120172332D01*
X222629119Y-120210600D01*
X222656179Y-120237660D01*
X222675313Y-120241466D01*
X223437218Y-120241466D01*
X223456352Y-120237660D01*
X223483412Y-120210600D01*
X223483412Y-120172332D01*
X223456352Y-120145272D01*
X223437218Y-120141466D01*
X222675313Y-120141466D01*
X222656179Y-120145272D01*
X222629119Y-120172332D01*
X221915789Y-120172332D01*
X221915789Y-119572419D01*
X221915084Y-119568875D01*
X223720677Y-119568875D01*
X223723117Y-119588230D01*
X224056450Y-120588230D01*
X224066111Y-120605178D01*
X224069452Y-120606848D01*
X224071124Y-120610192D01*
X224086166Y-120615205D01*
X224100340Y-120622293D01*
X224103883Y-120621111D01*
X224107428Y-120622293D01*
X224121607Y-120615203D01*
X224136644Y-120610191D01*
X224138314Y-120606850D01*
X224141657Y-120605179D01*
X224151318Y-120588230D01*
X224378811Y-119905752D01*
X224720551Y-119905752D01*
X224720551Y-120572419D01*
X224724357Y-120591553D01*
X224751417Y-120618613D01*
X224789685Y-120618613D01*
X224816745Y-120591553D01*
X224820551Y-120572419D01*
X224820551Y-119905752D01*
X224816745Y-119886618D01*
X224789685Y-119859558D01*
X224751417Y-119859558D01*
X224724357Y-119886618D01*
X224720551Y-119905752D01*
X224378811Y-119905752D01*
X224480427Y-119600904D01*
X224676738Y-119600904D01*
X224676738Y-119639172D01*
X224687577Y-119655393D01*
X224735195Y-119703012D01*
X224751416Y-119713851D01*
X224751417Y-119713851D01*
X224789685Y-119713851D01*
X224805906Y-119703012D01*
X224853525Y-119655394D01*
X224864364Y-119639173D01*
X224864364Y-119600904D01*
X224864364Y-119600903D01*
X224853525Y-119584682D01*
X224841262Y-119572419D01*
X225196741Y-119572419D01*
X225196741Y-120572419D01*
X225200547Y-120591553D01*
X225227607Y-120618613D01*
X225246741Y-120622419D01*
X225484836Y-120622419D01*
X225492698Y-120620855D01*
X225500647Y-120619853D01*
X225643504Y-120572234D01*
X225645679Y-120570994D01*
X225646828Y-120570994D01*
X225653498Y-120566536D01*
X225660452Y-120562573D01*
X225660964Y-120561547D01*
X225663049Y-120560155D01*
X225758287Y-120464916D01*
X225762740Y-120458250D01*
X225767652Y-120451922D01*
X225815271Y-120356684D01*
X225816717Y-120351402D01*
X225819057Y-120346450D01*
X225866676Y-120155974D01*
X225866973Y-120149856D01*
X225868169Y-120143847D01*
X225868169Y-120000990D01*
X225866973Y-119994980D01*
X225866676Y-119988863D01*
X225845898Y-119905752D01*
X226196741Y-119905752D01*
X226196741Y-120572419D01*
X226200547Y-120591553D01*
X226227607Y-120618613D01*
X226265875Y-120618613D01*
X226292935Y-120591553D01*
X226296741Y-120572419D01*
X226296741Y-120048609D01*
X226625312Y-120048609D01*
X226625312Y-120429561D01*
X226625800Y-120432017D01*
X226625438Y-120433105D01*
X226627553Y-120440829D01*
X226629118Y-120448695D01*
X226629929Y-120449506D01*
X226630591Y-120451921D01*
X226678209Y-120547160D01*
X226684312Y-120555024D01*
X226685158Y-120557560D01*
X226687981Y-120559751D01*
X226690171Y-120562572D01*
X226692704Y-120563416D01*
X226700570Y-120569521D01*
X226795808Y-120617140D01*
X226798223Y-120617801D01*
X226799035Y-120618613D01*
X226806896Y-120620176D01*
X226814624Y-120622293D01*
X226815712Y-120621930D01*
X226818169Y-120622419D01*
X227008645Y-120622419D01*
X227011101Y-120621930D01*
X227012190Y-120622293D01*
X227019917Y-120620176D01*
X227027779Y-120618613D01*
X227028590Y-120617801D01*
X227031006Y-120617140D01*
X227126243Y-120569522D01*
X227141655Y-120557560D01*
X227153757Y-120521256D01*
X227136643Y-120487028D01*
X227100338Y-120474926D01*
X227081522Y-120480079D01*
X226996842Y-120522419D01*
X226829973Y-120522419D01*
X226760198Y-120487532D01*
X226725312Y-120417759D01*
X226725312Y-120280075D01*
X227161307Y-120192876D01*
X227168132Y-120190041D01*
X227170636Y-120190041D01*
X227172415Y-120188261D01*
X227179323Y-120185392D01*
X227187399Y-120173278D01*
X227197696Y-120162981D01*
X227199155Y-120155643D01*
X227200551Y-120153550D01*
X227200060Y-120151095D01*
X227201502Y-120143847D01*
X227201502Y-120048609D01*
X227201013Y-120046152D01*
X227201376Y-120045064D01*
X227199259Y-120037336D01*
X227197696Y-120029475D01*
X227196884Y-120028663D01*
X227196223Y-120026248D01*
X227148604Y-119931010D01*
X227142499Y-119923144D01*
X227141655Y-119920611D01*
X227138834Y-119918421D01*
X227136643Y-119915598D01*
X227134107Y-119914752D01*
X227126243Y-119908649D01*
X227120449Y-119905752D01*
X227530074Y-119905752D01*
X227530074Y-120429561D01*
X227530562Y-120432017D01*
X227530200Y-120433105D01*
X227532315Y-120440829D01*
X227533880Y-120448695D01*
X227534691Y-120449506D01*
X227535353Y-120451921D01*
X227582971Y-120547160D01*
X227589074Y-120555024D01*
X227589920Y-120557560D01*
X227592743Y-120559751D01*
X227594933Y-120562572D01*
X227597466Y-120563416D01*
X227605332Y-120569521D01*
X227700570Y-120617140D01*
X227702985Y-120617801D01*
X227703797Y-120618613D01*
X227711658Y-120620176D01*
X227719386Y-120622293D01*
X227720474Y-120621930D01*
X227722931Y-120622419D01*
X227865788Y-120622419D01*
X227868244Y-120621930D01*
X227869333Y-120622293D01*
X227877060Y-120620176D01*
X227884922Y-120618613D01*
X227885733Y-120617801D01*
X227888149Y-120617140D01*
X227960358Y-120581035D01*
X227962451Y-120591553D01*
X227989511Y-120618613D01*
X228027779Y-120618613D01*
X228054839Y-120591553D01*
X228058645Y-120572419D01*
X228058645Y-119905752D01*
X228054839Y-119886618D01*
X228027779Y-119859558D01*
X227989511Y-119859558D01*
X227962451Y-119886618D01*
X227958645Y-119905752D01*
X227958645Y-120456469D01*
X227931406Y-120483708D01*
X227853985Y-120522419D01*
X227734735Y-120522419D01*
X227664960Y-120487532D01*
X227630074Y-120417759D01*
X227630074Y-119905752D01*
X227626268Y-119886618D01*
X227599208Y-119859558D01*
X227560940Y-119859558D01*
X227533880Y-119886618D01*
X227530074Y-119905752D01*
X227120449Y-119905752D01*
X227031006Y-119861031D01*
X227028590Y-119860369D01*
X227027779Y-119859558D01*
X227019917Y-119857994D01*
X227012190Y-119855878D01*
X227011101Y-119856240D01*
X227008645Y-119855752D01*
X226818169Y-119855752D01*
X226815712Y-119856240D01*
X226814624Y-119855878D01*
X226806896Y-119857994D01*
X226799035Y-119859558D01*
X226798223Y-119860369D01*
X226795808Y-119861031D01*
X226700570Y-119908650D01*
X226692704Y-119914754D01*
X226690171Y-119915599D01*
X226687981Y-119918419D01*
X226685158Y-119920611D01*
X226684312Y-119923146D01*
X226678209Y-119931011D01*
X226630591Y-120026248D01*
X226629929Y-120028663D01*
X226629118Y-120029475D01*
X226627554Y-120037336D01*
X226625438Y-120045064D01*
X226625800Y-120046152D01*
X226625312Y-120048609D01*
X226296741Y-120048609D01*
X226296741Y-119905752D01*
X226292935Y-119886618D01*
X226265875Y-119859558D01*
X226227607Y-119859558D01*
X226200547Y-119886618D01*
X226196741Y-119905752D01*
X225845898Y-119905752D01*
X225819057Y-119798387D01*
X225816717Y-119793434D01*
X225815271Y-119788153D01*
X225767652Y-119692915D01*
X225762736Y-119686580D01*
X225758286Y-119679921D01*
X225679269Y-119600904D01*
X226152928Y-119600904D01*
X226152928Y-119639172D01*
X226163767Y-119655393D01*
X226211385Y-119703012D01*
X226227606Y-119713851D01*
X226227607Y-119713851D01*
X226265875Y-119713851D01*
X226282096Y-119703012D01*
X226329715Y-119655394D01*
X226340554Y-119639173D01*
X226340554Y-119600904D01*
X226340554Y-119600903D01*
X226329715Y-119584682D01*
X226317452Y-119572419D01*
X228434836Y-119572419D01*
X228434836Y-120572419D01*
X228438642Y-120591553D01*
X228465702Y-120618613D01*
X228503970Y-120618613D01*
X228531030Y-120591553D01*
X228534836Y-120572419D01*
X228534836Y-120164557D01*
X228622282Y-120077110D01*
X229016264Y-120602419D01*
X229030789Y-120615443D01*
X229068673Y-120620855D01*
X229099288Y-120597894D01*
X229104700Y-120560010D01*
X229096264Y-120542419D01*
X228693711Y-120005681D01*
X229091619Y-119607774D01*
X229102458Y-119591553D01*
X229102458Y-119572419D01*
X229434836Y-119572419D01*
X229434836Y-120572419D01*
X229438642Y-120591553D01*
X229465702Y-120618613D01*
X229503970Y-120618613D01*
X229531030Y-120591553D01*
X229534836Y-120572419D01*
X229534836Y-120021700D01*
X229562073Y-119994463D01*
X229639497Y-119955752D01*
X229758747Y-119955752D01*
X229828520Y-119990638D01*
X229863407Y-120060412D01*
X229863407Y-120572419D01*
X229867213Y-120591553D01*
X229894273Y-120618613D01*
X229932541Y-120618613D01*
X229959601Y-120591553D01*
X229963407Y-120572419D01*
X229963407Y-120048609D01*
X229962918Y-120046152D01*
X229963281Y-120045064D01*
X229961164Y-120037336D01*
X229959601Y-120029475D01*
X229958789Y-120028663D01*
X229958128Y-120026248D01*
X229910509Y-119931010D01*
X229904404Y-119923144D01*
X229903560Y-119920611D01*
X229900739Y-119918421D01*
X229898548Y-119915598D01*
X229896012Y-119914752D01*
X229888148Y-119908649D01*
X229882354Y-119905752D01*
X230339598Y-119905752D01*
X230339598Y-120572419D01*
X230343404Y-120591553D01*
X230370464Y-120618613D01*
X230408732Y-120618613D01*
X230435792Y-120591553D01*
X230439598Y-120572419D01*
X230439598Y-120048609D01*
X230768169Y-120048609D01*
X230768169Y-120429561D01*
X230768657Y-120432017D01*
X230768295Y-120433105D01*
X230770410Y-120440829D01*
X230771975Y-120448695D01*
X230772786Y-120449506D01*
X230773448Y-120451921D01*
X230821066Y-120547160D01*
X230827169Y-120555024D01*
X230828015Y-120557560D01*
X230830838Y-120559751D01*
X230833028Y-120562572D01*
X230835561Y-120563416D01*
X230843427Y-120569521D01*
X230938665Y-120617140D01*
X230941080Y-120617801D01*
X230941892Y-120618613D01*
X230949753Y-120620176D01*
X230957481Y-120622293D01*
X230958569Y-120621930D01*
X230961026Y-120622419D01*
X231151502Y-120622419D01*
X231153958Y-120621930D01*
X231155047Y-120622293D01*
X231162774Y-120620176D01*
X231170636Y-120618613D01*
X231171447Y-120617801D01*
X231173863Y-120617140D01*
X231269100Y-120569522D01*
X231284512Y-120557560D01*
X231296614Y-120521256D01*
X231279500Y-120487028D01*
X231243195Y-120474926D01*
X231224379Y-120480079D01*
X231139699Y-120522419D01*
X230972830Y-120522419D01*
X230903055Y-120487532D01*
X230868169Y-120417759D01*
X230868169Y-120280075D01*
X231304164Y-120192876D01*
X231310989Y-120190041D01*
X231313493Y-120190041D01*
X231315272Y-120188261D01*
X231322180Y-120185392D01*
X231330256Y-120173278D01*
X231340553Y-120162981D01*
X231342012Y-120155643D01*
X231343408Y-120153550D01*
X231342917Y-120151095D01*
X231344359Y-120143847D01*
X231344359Y-120048609D01*
X231343870Y-120046152D01*
X231344233Y-120045064D01*
X231342116Y-120037336D01*
X231340553Y-120029475D01*
X231339741Y-120028663D01*
X231339080Y-120026248D01*
X231291461Y-119931010D01*
X231285356Y-119923144D01*
X231284512Y-119920611D01*
X231281691Y-119918421D01*
X231279500Y-119915598D01*
X231276964Y-119914752D01*
X231269100Y-119908649D01*
X231263306Y-119905752D01*
X231672931Y-119905752D01*
X231672931Y-120572419D01*
X231676737Y-120591553D01*
X231703797Y-120618613D01*
X231742065Y-120618613D01*
X231769125Y-120591553D01*
X231772931Y-120572419D01*
X231772931Y-120021700D01*
X231800168Y-119994463D01*
X231877592Y-119955752D01*
X231996842Y-119955752D01*
X232066615Y-119990638D01*
X232101502Y-120060412D01*
X232101502Y-120572419D01*
X232105308Y-120591553D01*
X232132368Y-120618613D01*
X232170636Y-120618613D01*
X232197696Y-120591553D01*
X232201502Y-120572419D01*
X232201502Y-120048609D01*
X232201013Y-120046152D01*
X232201376Y-120045064D01*
X232199259Y-120037336D01*
X232197696Y-120029475D01*
X232196884Y-120028663D01*
X232196223Y-120026248D01*
X232148604Y-119931010D01*
X232142499Y-119923144D01*
X232141655Y-119920611D01*
X232138834Y-119918421D01*
X232136643Y-119915598D01*
X232134107Y-119914752D01*
X232126243Y-119908649D01*
X232031006Y-119861031D01*
X232028590Y-119860369D01*
X232027779Y-119859558D01*
X232019917Y-119857994D01*
X232012190Y-119855878D01*
X232011101Y-119856240D01*
X232008645Y-119855752D01*
X231865788Y-119855752D01*
X231863331Y-119856240D01*
X231862243Y-119855878D01*
X231854515Y-119857994D01*
X231846654Y-119859558D01*
X231845842Y-119860369D01*
X231843427Y-119861031D01*
X231771217Y-119897135D01*
X231769125Y-119886618D01*
X231742065Y-119859558D01*
X231703797Y-119859558D01*
X231676737Y-119886618D01*
X231672931Y-119905752D01*
X231263306Y-119905752D01*
X231173863Y-119861031D01*
X231171447Y-119860369D01*
X231170636Y-119859558D01*
X231162774Y-119857994D01*
X231155047Y-119855878D01*
X231153958Y-119856240D01*
X231151502Y-119855752D01*
X230961026Y-119855752D01*
X230958569Y-119856240D01*
X230957481Y-119855878D01*
X230949753Y-119857994D01*
X230941892Y-119859558D01*
X230941080Y-119860369D01*
X230938665Y-119861031D01*
X230843427Y-119908650D01*
X230835561Y-119914754D01*
X230833028Y-119915599D01*
X230830838Y-119918419D01*
X230828015Y-119920611D01*
X230827169Y-119923146D01*
X230821066Y-119931011D01*
X230773448Y-120026248D01*
X230772786Y-120028663D01*
X230771975Y-120029475D01*
X230770411Y-120037336D01*
X230768295Y-120045064D01*
X230768657Y-120046152D01*
X230768169Y-120048609D01*
X230439598Y-120048609D01*
X230439598Y-119905752D01*
X230435792Y-119886618D01*
X230408732Y-119859558D01*
X230370464Y-119859558D01*
X230343404Y-119886618D01*
X230339598Y-119905752D01*
X229882354Y-119905752D01*
X229792911Y-119861031D01*
X229790495Y-119860369D01*
X229789684Y-119859558D01*
X229781822Y-119857994D01*
X229774095Y-119855878D01*
X229773006Y-119856240D01*
X229770550Y-119855752D01*
X229627693Y-119855752D01*
X229625236Y-119856240D01*
X229624148Y-119855878D01*
X229616420Y-119857994D01*
X229608559Y-119859558D01*
X229607747Y-119860369D01*
X229605332Y-119861031D01*
X229534836Y-119896279D01*
X229534836Y-119600904D01*
X230295785Y-119600904D01*
X230295785Y-119639172D01*
X230306624Y-119655393D01*
X230354242Y-119703012D01*
X230370463Y-119713851D01*
X230370464Y-119713851D01*
X230408732Y-119713851D01*
X230424953Y-119703012D01*
X230472572Y-119655394D01*
X230483411Y-119639173D01*
X230483411Y-119600904D01*
X230483411Y-119600903D01*
X230472572Y-119584682D01*
X230424953Y-119537064D01*
X230408732Y-119526225D01*
X230370463Y-119526225D01*
X230354242Y-119537064D01*
X230306624Y-119584683D01*
X230295786Y-119600903D01*
X230295785Y-119600904D01*
X229534836Y-119600904D01*
X229534836Y-119572419D01*
X229531030Y-119553285D01*
X229503970Y-119526225D01*
X229465702Y-119526225D01*
X229438642Y-119553285D01*
X229434836Y-119572419D01*
X229102458Y-119572419D01*
X229102458Y-119553285D01*
X229075398Y-119526225D01*
X229037130Y-119526225D01*
X229020909Y-119537064D01*
X228534836Y-120023137D01*
X228534836Y-119572419D01*
X228531030Y-119553285D01*
X228503970Y-119526225D01*
X228465702Y-119526225D01*
X228438642Y-119553285D01*
X228434836Y-119572419D01*
X226317452Y-119572419D01*
X226282096Y-119537064D01*
X226265875Y-119526225D01*
X226227606Y-119526225D01*
X226211385Y-119537064D01*
X226163767Y-119584683D01*
X226152929Y-119600903D01*
X226152928Y-119600904D01*
X225679269Y-119600904D01*
X225663048Y-119584683D01*
X225660965Y-119583291D01*
X225660452Y-119582265D01*
X225653491Y-119578297D01*
X225646827Y-119573844D01*
X225645679Y-119573844D01*
X225643504Y-119572604D01*
X225500647Y-119524985D01*
X225492698Y-119523982D01*
X225484836Y-119522419D01*
X225246741Y-119522419D01*
X225227607Y-119526225D01*
X225200547Y-119553285D01*
X225196741Y-119572419D01*
X224841262Y-119572419D01*
X224805906Y-119537064D01*
X224789685Y-119526225D01*
X224751416Y-119526225D01*
X224735195Y-119537064D01*
X224687577Y-119584683D01*
X224676739Y-119600903D01*
X224676738Y-119600904D01*
X224480427Y-119600904D01*
X224484651Y-119588231D01*
X224487091Y-119568875D01*
X224469977Y-119534647D01*
X224433673Y-119522545D01*
X224399444Y-119539660D01*
X224389783Y-119556608D01*
X224103884Y-120414305D01*
X223817985Y-119556608D01*
X223808324Y-119539659D01*
X223774095Y-119522545D01*
X223737791Y-119534646D01*
X223720677Y-119568875D01*
X221915084Y-119568875D01*
X221911983Y-119553285D01*
X221884923Y-119526225D01*
X221846655Y-119526225D01*
X221819595Y-119553285D01*
X221815789Y-119572419D01*
X221578649Y-119572419D01*
X221578649Y-119553285D01*
X221551589Y-119526225D01*
X221532455Y-119522419D01*
X220961027Y-119522419D01*
X220941893Y-119526225D01*
X220914833Y-119553285D01*
X220510753Y-119553285D01*
X220459578Y-119527698D01*
X220457162Y-119527036D01*
X220456351Y-119526225D01*
X220448489Y-119524661D01*
X220440762Y-119522545D01*
X220439673Y-119522907D01*
X220437217Y-119522419D01*
X220103884Y-119522419D01*
X220084750Y-119526225D01*
X220057690Y-119553285D01*
X220053884Y-119572419D01*
X219942773Y-119572419D01*
X219942773Y-119411308D01*
X232312613Y-119411308D01*
X232312613Y-120733530D01*
G37*
X225461027Y-81172419D02*
X225794360Y-82172419D01*
X225794360Y-82172419D02*
X226127693Y-81172419D01*
X226461027Y-82172419D02*
X226461027Y-81172419D01*
X226461027Y-81172419D02*
X226841979Y-81172419D01*
X226841979Y-81172419D02*
X226937217Y-81220038D01*
X226937217Y-81220038D02*
X226984836Y-81267657D01*
X226984836Y-81267657D02*
X227032455Y-81362895D01*
X227032455Y-81362895D02*
X227032455Y-81505752D01*
X227032455Y-81505752D02*
X226984836Y-81600990D01*
X226984836Y-81600990D02*
X226937217Y-81648609D01*
X226937217Y-81648609D02*
X226841979Y-81696228D01*
X226841979Y-81696228D02*
X226461027Y-81696228D01*
X227461027Y-82172419D02*
X227461027Y-81172419D01*
X227461027Y-81172419D02*
X227841979Y-81172419D01*
X227841979Y-81172419D02*
X227937217Y-81220038D01*
X227937217Y-81220038D02*
X227984836Y-81267657D01*
X227984836Y-81267657D02*
X228032455Y-81362895D01*
X228032455Y-81362895D02*
X228032455Y-81505752D01*
X228032455Y-81505752D02*
X227984836Y-81600990D01*
X227984836Y-81600990D02*
X227937217Y-81648609D01*
X227937217Y-81648609D02*
X227841979Y-81696228D01*
X227841979Y-81696228D02*
X227461027Y-81696228D01*
X189151390Y-71296115D02*
X189151390Y-70962782D01*
X188627580Y-70819925D02*
X188627580Y-71296115D01*
X188627580Y-71296115D02*
X189627580Y-71296115D01*
X189627580Y-71296115D02*
X189627580Y-70819925D01*
X188722819Y-69819925D02*
X188675200Y-69867544D01*
X188675200Y-69867544D02*
X188627580Y-70010401D01*
X188627580Y-70010401D02*
X188627580Y-70105639D01*
X188627580Y-70105639D02*
X188675200Y-70248496D01*
X188675200Y-70248496D02*
X188770438Y-70343734D01*
X188770438Y-70343734D02*
X188865676Y-70391353D01*
X188865676Y-70391353D02*
X189056152Y-70438972D01*
X189056152Y-70438972D02*
X189199009Y-70438972D01*
X189199009Y-70438972D02*
X189389485Y-70391353D01*
X189389485Y-70391353D02*
X189484723Y-70343734D01*
X189484723Y-70343734D02*
X189579961Y-70248496D01*
X189579961Y-70248496D02*
X189627580Y-70105639D01*
X189627580Y-70105639D02*
X189627580Y-70010401D01*
X189627580Y-70010401D02*
X189579961Y-69867544D01*
X189579961Y-69867544D02*
X189532342Y-69819925D01*
X188627580Y-69391353D02*
X189627580Y-69391353D01*
X189151390Y-69391353D02*
X189151390Y-68819925D01*
X188627580Y-68819925D02*
X189627580Y-68819925D01*
X189627580Y-68153258D02*
X189627580Y-67962782D01*
X189627580Y-67962782D02*
X189579961Y-67867544D01*
X189579961Y-67867544D02*
X189484723Y-67772306D01*
X189484723Y-67772306D02*
X189294247Y-67724687D01*
X189294247Y-67724687D02*
X188960914Y-67724687D01*
X188960914Y-67724687D02*
X188770438Y-67772306D01*
X188770438Y-67772306D02*
X188675200Y-67867544D01*
X188675200Y-67867544D02*
X188627580Y-67962782D01*
X188627580Y-67962782D02*
X188627580Y-68153258D01*
X188627580Y-68153258D02*
X188675200Y-68248496D01*
X188675200Y-68248496D02*
X188770438Y-68343734D01*
X188770438Y-68343734D02*
X188960914Y-68391353D01*
X188960914Y-68391353D02*
X189294247Y-68391353D01*
X189294247Y-68391353D02*
X189484723Y-68343734D01*
X189484723Y-68343734D02*
X189579961Y-68248496D01*
X189579961Y-68248496D02*
X189627580Y-68153258D01*
X191572419Y-70638972D02*
X191572419Y-70067544D01*
X192572419Y-70353258D02*
X191572419Y-70353258D01*
X192572419Y-69162782D02*
X192096228Y-69496115D01*
X192572419Y-69734210D02*
X191572419Y-69734210D01*
X191572419Y-69734210D02*
X191572419Y-69353258D01*
X191572419Y-69353258D02*
X191620038Y-69258020D01*
X191620038Y-69258020D02*
X191667657Y-69210401D01*
X191667657Y-69210401D02*
X191762895Y-69162782D01*
X191762895Y-69162782D02*
X191905752Y-69162782D01*
X191905752Y-69162782D02*
X192000990Y-69210401D01*
X192000990Y-69210401D02*
X192048609Y-69258020D01*
X192048609Y-69258020D02*
X192096228Y-69353258D01*
X192096228Y-69353258D02*
X192096228Y-69734210D01*
X192572419Y-68734210D02*
X191572419Y-68734210D01*
X191620038Y-67734211D02*
X191572419Y-67829449D01*
X191572419Y-67829449D02*
X191572419Y-67972306D01*
X191572419Y-67972306D02*
X191620038Y-68115163D01*
X191620038Y-68115163D02*
X191715276Y-68210401D01*
X191715276Y-68210401D02*
X191810514Y-68258020D01*
X191810514Y-68258020D02*
X192000990Y-68305639D01*
X192000990Y-68305639D02*
X192143847Y-68305639D01*
X192143847Y-68305639D02*
X192334323Y-68258020D01*
X192334323Y-68258020D02*
X192429561Y-68210401D01*
X192429561Y-68210401D02*
X192524800Y-68115163D01*
X192524800Y-68115163D02*
X192572419Y-67972306D01*
X192572419Y-67972306D02*
X192572419Y-67877068D01*
X192572419Y-67877068D02*
X192524800Y-67734211D01*
X192524800Y-67734211D02*
X192477180Y-67686592D01*
X192477180Y-67686592D02*
X192143847Y-67686592D01*
X192143847Y-67686592D02*
X192143847Y-67877068D01*
X193972419Y-70238972D02*
X194972419Y-69905639D01*
X194972419Y-69905639D02*
X193972419Y-69572306D01*
X194877180Y-68667544D02*
X194924800Y-68715163D01*
X194924800Y-68715163D02*
X194972419Y-68858020D01*
X194972419Y-68858020D02*
X194972419Y-68953258D01*
X194972419Y-68953258D02*
X194924800Y-69096115D01*
X194924800Y-69096115D02*
X194829561Y-69191353D01*
X194829561Y-69191353D02*
X194734323Y-69238972D01*
X194734323Y-69238972D02*
X194543847Y-69286591D01*
X194543847Y-69286591D02*
X194400990Y-69286591D01*
X194400990Y-69286591D02*
X194210514Y-69238972D01*
X194210514Y-69238972D02*
X194115276Y-69191353D01*
X194115276Y-69191353D02*
X194020038Y-69096115D01*
X194020038Y-69096115D02*
X193972419Y-68953258D01*
X193972419Y-68953258D02*
X193972419Y-68858020D01*
X193972419Y-68858020D02*
X194020038Y-68715163D01*
X194020038Y-68715163D02*
X194067657Y-68667544D01*
X194877180Y-67667544D02*
X194924800Y-67715163D01*
X194924800Y-67715163D02*
X194972419Y-67858020D01*
X194972419Y-67858020D02*
X194972419Y-67953258D01*
X194972419Y-67953258D02*
X194924800Y-68096115D01*
X194924800Y-68096115D02*
X194829561Y-68191353D01*
X194829561Y-68191353D02*
X194734323Y-68238972D01*
X194734323Y-68238972D02*
X194543847Y-68286591D01*
X194543847Y-68286591D02*
X194400990Y-68286591D01*
X194400990Y-68286591D02*
X194210514Y-68238972D01*
X194210514Y-68238972D02*
X194115276Y-68191353D01*
X194115276Y-68191353D02*
X194020038Y-68096115D01*
X194020038Y-68096115D02*
X193972419Y-67953258D01*
X193972419Y-67953258D02*
X193972419Y-67858020D01*
X193972419Y-67858020D02*
X194020038Y-67715163D01*
X194020038Y-67715163D02*
X194067657Y-67667544D01*
D11*
X225051580Y-112298566D02*
X225099200Y-112346185D01*
X225099200Y-112346185D02*
X225146819Y-112489042D01*
X225146819Y-112489042D02*
X225146819Y-112584280D01*
X225146819Y-112584280D02*
X225099200Y-112727137D01*
X225099200Y-112727137D02*
X225003961Y-112822375D01*
X225003961Y-112822375D02*
X224908723Y-112869994D01*
X224908723Y-112869994D02*
X224718247Y-112917613D01*
X224718247Y-112917613D02*
X224575390Y-112917613D01*
X224575390Y-112917613D02*
X224384914Y-112869994D01*
X224384914Y-112869994D02*
X224289676Y-112822375D01*
X224289676Y-112822375D02*
X224194438Y-112727137D01*
X224194438Y-112727137D02*
X224146819Y-112584280D01*
X224146819Y-112584280D02*
X224146819Y-112489042D01*
X224146819Y-112489042D02*
X224194438Y-112346185D01*
X224194438Y-112346185D02*
X224242057Y-112298566D01*
X225146819Y-111822375D02*
X225146819Y-111631899D01*
X225146819Y-111631899D02*
X225099200Y-111536661D01*
X225099200Y-111536661D02*
X225051580Y-111489042D01*
X225051580Y-111489042D02*
X224908723Y-111393804D01*
X224908723Y-111393804D02*
X224718247Y-111346185D01*
X224718247Y-111346185D02*
X224337295Y-111346185D01*
X224337295Y-111346185D02*
X224242057Y-111393804D01*
X224242057Y-111393804D02*
X224194438Y-111441423D01*
X224194438Y-111441423D02*
X224146819Y-111536661D01*
X224146819Y-111536661D02*
X224146819Y-111727137D01*
X224146819Y-111727137D02*
X224194438Y-111822375D01*
X224194438Y-111822375D02*
X224242057Y-111869994D01*
X224242057Y-111869994D02*
X224337295Y-111917613D01*
X224337295Y-111917613D02*
X224575390Y-111917613D01*
X224575390Y-111917613D02*
X224670628Y-111869994D01*
X224670628Y-111869994D02*
X224718247Y-111822375D01*
X224718247Y-111822375D02*
X224765866Y-111727137D01*
X224765866Y-111727137D02*
X224765866Y-111536661D01*
X224765866Y-111536661D02*
X224718247Y-111441423D01*
X224718247Y-111441423D02*
X224670628Y-111393804D01*
X224670628Y-111393804D02*
X224575390Y-111346185D01*
X224505333Y-100961719D02*
X224172000Y-100485528D01*
X223933905Y-100961719D02*
X223933905Y-99961719D01*
X223933905Y-99961719D02*
X224314857Y-99961719D01*
X224314857Y-99961719D02*
X224410095Y-100009338D01*
X224410095Y-100009338D02*
X224457714Y-100056957D01*
X224457714Y-100056957D02*
X224505333Y-100152195D01*
X224505333Y-100152195D02*
X224505333Y-100295052D01*
X224505333Y-100295052D02*
X224457714Y-100390290D01*
X224457714Y-100390290D02*
X224410095Y-100437909D01*
X224410095Y-100437909D02*
X224314857Y-100485528D01*
X224314857Y-100485528D02*
X223933905Y-100485528D01*
X225362476Y-99961719D02*
X225172000Y-99961719D01*
X225172000Y-99961719D02*
X225076762Y-100009338D01*
X225076762Y-100009338D02*
X225029143Y-100056957D01*
X225029143Y-100056957D02*
X224933905Y-100199814D01*
X224933905Y-100199814D02*
X224886286Y-100390290D01*
X224886286Y-100390290D02*
X224886286Y-100771242D01*
X224886286Y-100771242D02*
X224933905Y-100866480D01*
X224933905Y-100866480D02*
X224981524Y-100914100D01*
X224981524Y-100914100D02*
X225076762Y-100961719D01*
X225076762Y-100961719D02*
X225267238Y-100961719D01*
X225267238Y-100961719D02*
X225362476Y-100914100D01*
X225362476Y-100914100D02*
X225410095Y-100866480D01*
X225410095Y-100866480D02*
X225457714Y-100771242D01*
X225457714Y-100771242D02*
X225457714Y-100533147D01*
X225457714Y-100533147D02*
X225410095Y-100437909D01*
X225410095Y-100437909D02*
X225362476Y-100390290D01*
X225362476Y-100390290D02*
X225267238Y-100342671D01*
X225267238Y-100342671D02*
X225076762Y-100342671D01*
X225076762Y-100342671D02*
X224981524Y-100390290D01*
X224981524Y-100390290D02*
X224933905Y-100437909D01*
X224933905Y-100437909D02*
X224886286Y-100533147D01*
X210850057Y-92995238D02*
X210802438Y-93090476D01*
X210802438Y-93090476D02*
X210707200Y-93185714D01*
X210707200Y-93185714D02*
X210564342Y-93328571D01*
X210564342Y-93328571D02*
X210516723Y-93423809D01*
X210516723Y-93423809D02*
X210516723Y-93519047D01*
X210754819Y-93471428D02*
X210707200Y-93566666D01*
X210707200Y-93566666D02*
X210611961Y-93661904D01*
X210611961Y-93661904D02*
X210421485Y-93709523D01*
X210421485Y-93709523D02*
X210088152Y-93709523D01*
X210088152Y-93709523D02*
X209897676Y-93661904D01*
X209897676Y-93661904D02*
X209802438Y-93566666D01*
X209802438Y-93566666D02*
X209754819Y-93471428D01*
X209754819Y-93471428D02*
X209754819Y-93280952D01*
X209754819Y-93280952D02*
X209802438Y-93185714D01*
X209802438Y-93185714D02*
X209897676Y-93090476D01*
X209897676Y-93090476D02*
X210088152Y-93042857D01*
X210088152Y-93042857D02*
X210421485Y-93042857D01*
X210421485Y-93042857D02*
X210611961Y-93090476D01*
X210611961Y-93090476D02*
X210707200Y-93185714D01*
X210707200Y-93185714D02*
X210754819Y-93280952D01*
X210754819Y-93280952D02*
X210754819Y-93471428D01*
X210754819Y-92090476D02*
X210754819Y-92661904D01*
X210754819Y-92376190D02*
X209754819Y-92376190D01*
X209754819Y-92376190D02*
X209897676Y-92471428D01*
X209897676Y-92471428D02*
X209992914Y-92566666D01*
X209992914Y-92566666D02*
X210040533Y-92661904D01*
X204079142Y-115416480D02*
X204031523Y-115464100D01*
X204031523Y-115464100D02*
X203888666Y-115511719D01*
X203888666Y-115511719D02*
X203793428Y-115511719D01*
X203793428Y-115511719D02*
X203650571Y-115464100D01*
X203650571Y-115464100D02*
X203555333Y-115368861D01*
X203555333Y-115368861D02*
X203507714Y-115273623D01*
X203507714Y-115273623D02*
X203460095Y-115083147D01*
X203460095Y-115083147D02*
X203460095Y-114940290D01*
X203460095Y-114940290D02*
X203507714Y-114749814D01*
X203507714Y-114749814D02*
X203555333Y-114654576D01*
X203555333Y-114654576D02*
X203650571Y-114559338D01*
X203650571Y-114559338D02*
X203793428Y-114511719D01*
X203793428Y-114511719D02*
X203888666Y-114511719D01*
X203888666Y-114511719D02*
X204031523Y-114559338D01*
X204031523Y-114559338D02*
X204079142Y-114606957D01*
X205031523Y-115511719D02*
X204460095Y-115511719D01*
X204745809Y-115511719D02*
X204745809Y-114511719D01*
X204745809Y-114511719D02*
X204650571Y-114654576D01*
X204650571Y-114654576D02*
X204555333Y-114749814D01*
X204555333Y-114749814D02*
X204460095Y-114797433D01*
X205888666Y-114845052D02*
X205888666Y-115511719D01*
X205650571Y-114464100D02*
X205412476Y-115178385D01*
X205412476Y-115178385D02*
X206031523Y-115178385D01*
X218560095Y-116361719D02*
X218560095Y-117171242D01*
X218560095Y-117171242D02*
X218607714Y-117266480D01*
X218607714Y-117266480D02*
X218655333Y-117314100D01*
X218655333Y-117314100D02*
X218750571Y-117361719D01*
X218750571Y-117361719D02*
X218941047Y-117361719D01*
X218941047Y-117361719D02*
X219036285Y-117314100D01*
X219036285Y-117314100D02*
X219083904Y-117266480D01*
X219083904Y-117266480D02*
X219131523Y-117171242D01*
X219131523Y-117171242D02*
X219131523Y-116361719D01*
X219560095Y-116456957D02*
X219607714Y-116409338D01*
X219607714Y-116409338D02*
X219702952Y-116361719D01*
X219702952Y-116361719D02*
X219941047Y-116361719D01*
X219941047Y-116361719D02*
X220036285Y-116409338D01*
X220036285Y-116409338D02*
X220083904Y-116456957D01*
X220083904Y-116456957D02*
X220131523Y-116552195D01*
X220131523Y-116552195D02*
X220131523Y-116647433D01*
X220131523Y-116647433D02*
X220083904Y-116790290D01*
X220083904Y-116790290D02*
X219512476Y-117361719D01*
X219512476Y-117361719D02*
X220131523Y-117361719D01*
X213855333Y-117611719D02*
X213522000Y-117135528D01*
X213283905Y-117611719D02*
X213283905Y-116611719D01*
X213283905Y-116611719D02*
X213664857Y-116611719D01*
X213664857Y-116611719D02*
X213760095Y-116659338D01*
X213760095Y-116659338D02*
X213807714Y-116706957D01*
X213807714Y-116706957D02*
X213855333Y-116802195D01*
X213855333Y-116802195D02*
X213855333Y-116945052D01*
X213855333Y-116945052D02*
X213807714Y-117040290D01*
X213807714Y-117040290D02*
X213760095Y-117087909D01*
X213760095Y-117087909D02*
X213664857Y-117135528D01*
X213664857Y-117135528D02*
X213283905Y-117135528D01*
X214331524Y-117611719D02*
X214522000Y-117611719D01*
X214522000Y-117611719D02*
X214617238Y-117564100D01*
X214617238Y-117564100D02*
X214664857Y-117516480D01*
X214664857Y-117516480D02*
X214760095Y-117373623D01*
X214760095Y-117373623D02*
X214807714Y-117183147D01*
X214807714Y-117183147D02*
X214807714Y-116802195D01*
X214807714Y-116802195D02*
X214760095Y-116706957D01*
X214760095Y-116706957D02*
X214712476Y-116659338D01*
X214712476Y-116659338D02*
X214617238Y-116611719D01*
X214617238Y-116611719D02*
X214426762Y-116611719D01*
X214426762Y-116611719D02*
X214331524Y-116659338D01*
X214331524Y-116659338D02*
X214283905Y-116706957D01*
X214283905Y-116706957D02*
X214236286Y-116802195D01*
X214236286Y-116802195D02*
X214236286Y-117040290D01*
X214236286Y-117040290D02*
X214283905Y-117135528D01*
X214283905Y-117135528D02*
X214331524Y-117183147D01*
X214331524Y-117183147D02*
X214426762Y-117230766D01*
X214426762Y-117230766D02*
X214617238Y-117230766D01*
X214617238Y-117230766D02*
X214712476Y-117183147D01*
X214712476Y-117183147D02*
X214760095Y-117135528D01*
X214760095Y-117135528D02*
X214807714Y-117040290D01*
X209933333Y-73259580D02*
X209885714Y-73307200D01*
X209885714Y-73307200D02*
X209742857Y-73354819D01*
X209742857Y-73354819D02*
X209647619Y-73354819D01*
X209647619Y-73354819D02*
X209504762Y-73307200D01*
X209504762Y-73307200D02*
X209409524Y-73211961D01*
X209409524Y-73211961D02*
X209361905Y-73116723D01*
X209361905Y-73116723D02*
X209314286Y-72926247D01*
X209314286Y-72926247D02*
X209314286Y-72783390D01*
X209314286Y-72783390D02*
X209361905Y-72592914D01*
X209361905Y-72592914D02*
X209409524Y-72497676D01*
X209409524Y-72497676D02*
X209504762Y-72402438D01*
X209504762Y-72402438D02*
X209647619Y-72354819D01*
X209647619Y-72354819D02*
X209742857Y-72354819D01*
X209742857Y-72354819D02*
X209885714Y-72402438D01*
X209885714Y-72402438D02*
X209933333Y-72450057D01*
X210790476Y-72688152D02*
X210790476Y-73354819D01*
X210552381Y-72307200D02*
X210314286Y-73021485D01*
X210314286Y-73021485D02*
X210933333Y-73021485D01*
D10*
X228970080Y-115005466D02*
X228255795Y-115005466D01*
X228255795Y-115005466D02*
X228112938Y-114957847D01*
X228112938Y-114957847D02*
X228017700Y-114862609D01*
X228017700Y-114862609D02*
X227970080Y-114719752D01*
X227970080Y-114719752D02*
X227970080Y-114624514D01*
X228636747Y-115910228D02*
X227970080Y-115910228D01*
X229017700Y-115672133D02*
X228303414Y-115434038D01*
X228303414Y-115434038D02*
X228303414Y-116053085D01*
D11*
X194757142Y-78154819D02*
X194423809Y-77678628D01*
X194185714Y-78154819D02*
X194185714Y-77154819D01*
X194185714Y-77154819D02*
X194566666Y-77154819D01*
X194566666Y-77154819D02*
X194661904Y-77202438D01*
X194661904Y-77202438D02*
X194709523Y-77250057D01*
X194709523Y-77250057D02*
X194757142Y-77345295D01*
X194757142Y-77345295D02*
X194757142Y-77488152D01*
X194757142Y-77488152D02*
X194709523Y-77583390D01*
X194709523Y-77583390D02*
X194661904Y-77631009D01*
X194661904Y-77631009D02*
X194566666Y-77678628D01*
X194566666Y-77678628D02*
X194185714Y-77678628D01*
X195709523Y-78154819D02*
X195138095Y-78154819D01*
X195423809Y-78154819D02*
X195423809Y-77154819D01*
X195423809Y-77154819D02*
X195328571Y-77297676D01*
X195328571Y-77297676D02*
X195233333Y-77392914D01*
X195233333Y-77392914D02*
X195138095Y-77440533D01*
X196280952Y-77583390D02*
X196185714Y-77535771D01*
X196185714Y-77535771D02*
X196138095Y-77488152D01*
X196138095Y-77488152D02*
X196090476Y-77392914D01*
X196090476Y-77392914D02*
X196090476Y-77345295D01*
X196090476Y-77345295D02*
X196138095Y-77250057D01*
X196138095Y-77250057D02*
X196185714Y-77202438D01*
X196185714Y-77202438D02*
X196280952Y-77154819D01*
X196280952Y-77154819D02*
X196471428Y-77154819D01*
X196471428Y-77154819D02*
X196566666Y-77202438D01*
X196566666Y-77202438D02*
X196614285Y-77250057D01*
X196614285Y-77250057D02*
X196661904Y-77345295D01*
X196661904Y-77345295D02*
X196661904Y-77392914D01*
X196661904Y-77392914D02*
X196614285Y-77488152D01*
X196614285Y-77488152D02*
X196566666Y-77535771D01*
X196566666Y-77535771D02*
X196471428Y-77583390D01*
X196471428Y-77583390D02*
X196280952Y-77583390D01*
X196280952Y-77583390D02*
X196185714Y-77631009D01*
X196185714Y-77631009D02*
X196138095Y-77678628D01*
X196138095Y-77678628D02*
X196090476Y-77773866D01*
X196090476Y-77773866D02*
X196090476Y-77964342D01*
X196090476Y-77964342D02*
X196138095Y-78059580D01*
X196138095Y-78059580D02*
X196185714Y-78107200D01*
X196185714Y-78107200D02*
X196280952Y-78154819D01*
X196280952Y-78154819D02*
X196471428Y-78154819D01*
X196471428Y-78154819D02*
X196566666Y-78107200D01*
X196566666Y-78107200D02*
X196614285Y-78059580D01*
X196614285Y-78059580D02*
X196661904Y-77964342D01*
X196661904Y-77964342D02*
X196661904Y-77773866D01*
X196661904Y-77773866D02*
X196614285Y-77678628D01*
X196614285Y-77678628D02*
X196566666Y-77631009D01*
X196566666Y-77631009D02*
X196471428Y-77583390D01*
X221056819Y-102624757D02*
X220580628Y-102958090D01*
X221056819Y-103196185D02*
X220056819Y-103196185D01*
X220056819Y-103196185D02*
X220056819Y-102815233D01*
X220056819Y-102815233D02*
X220104438Y-102719995D01*
X220104438Y-102719995D02*
X220152057Y-102672376D01*
X220152057Y-102672376D02*
X220247295Y-102624757D01*
X220247295Y-102624757D02*
X220390152Y-102624757D01*
X220390152Y-102624757D02*
X220485390Y-102672376D01*
X220485390Y-102672376D02*
X220533009Y-102719995D01*
X220533009Y-102719995D02*
X220580628Y-102815233D01*
X220580628Y-102815233D02*
X220580628Y-103196185D01*
X221056819Y-101672376D02*
X221056819Y-102243804D01*
X221056819Y-101958090D02*
X220056819Y-101958090D01*
X220056819Y-101958090D02*
X220199676Y-102053328D01*
X220199676Y-102053328D02*
X220294914Y-102148566D01*
X220294914Y-102148566D02*
X220342533Y-102243804D01*
X221056819Y-100719995D02*
X221056819Y-101291423D01*
X221056819Y-101005709D02*
X220056819Y-101005709D01*
X220056819Y-101005709D02*
X220199676Y-101100947D01*
X220199676Y-101100947D02*
X220294914Y-101196185D01*
X220294914Y-101196185D02*
X220342533Y-101291423D01*
X200560095Y-96311719D02*
X200560095Y-97121242D01*
X200560095Y-97121242D02*
X200607714Y-97216480D01*
X200607714Y-97216480D02*
X200655333Y-97264100D01*
X200655333Y-97264100D02*
X200750571Y-97311719D01*
X200750571Y-97311719D02*
X200941047Y-97311719D01*
X200941047Y-97311719D02*
X201036285Y-97264100D01*
X201036285Y-97264100D02*
X201083904Y-97216480D01*
X201083904Y-97216480D02*
X201131523Y-97121242D01*
X201131523Y-97121242D02*
X201131523Y-96311719D01*
X202131523Y-97311719D02*
X201560095Y-97311719D01*
X201845809Y-97311719D02*
X201845809Y-96311719D01*
X201845809Y-96311719D02*
X201750571Y-96454576D01*
X201750571Y-96454576D02*
X201655333Y-96549814D01*
X201655333Y-96549814D02*
X201560095Y-96597433D01*
X229854819Y-110666666D02*
X229378628Y-110999999D01*
X229854819Y-111238094D02*
X228854819Y-111238094D01*
X228854819Y-111238094D02*
X228854819Y-110857142D01*
X228854819Y-110857142D02*
X228902438Y-110761904D01*
X228902438Y-110761904D02*
X228950057Y-110714285D01*
X228950057Y-110714285D02*
X229045295Y-110666666D01*
X229045295Y-110666666D02*
X229188152Y-110666666D01*
X229188152Y-110666666D02*
X229283390Y-110714285D01*
X229283390Y-110714285D02*
X229331009Y-110761904D01*
X229331009Y-110761904D02*
X229378628Y-110857142D01*
X229378628Y-110857142D02*
X229378628Y-111238094D01*
X228854819Y-109761904D02*
X228854819Y-110238094D01*
X228854819Y-110238094D02*
X229331009Y-110285713D01*
X229331009Y-110285713D02*
X229283390Y-110238094D01*
X229283390Y-110238094D02*
X229235771Y-110142856D01*
X229235771Y-110142856D02*
X229235771Y-109904761D01*
X229235771Y-109904761D02*
X229283390Y-109809523D01*
X229283390Y-109809523D02*
X229331009Y-109761904D01*
X229331009Y-109761904D02*
X229426247Y-109714285D01*
X229426247Y-109714285D02*
X229664342Y-109714285D01*
X229664342Y-109714285D02*
X229759580Y-109761904D01*
X229759580Y-109761904D02*
X229807200Y-109809523D01*
X229807200Y-109809523D02*
X229854819Y-109904761D01*
X229854819Y-109904761D02*
X229854819Y-110142856D01*
X229854819Y-110142856D02*
X229807200Y-110238094D01*
X229807200Y-110238094D02*
X229759580Y-110285713D01*
X204054819Y-93042857D02*
X203578628Y-93376190D01*
X204054819Y-93614285D02*
X203054819Y-93614285D01*
X203054819Y-93614285D02*
X203054819Y-93233333D01*
X203054819Y-93233333D02*
X203102438Y-93138095D01*
X203102438Y-93138095D02*
X203150057Y-93090476D01*
X203150057Y-93090476D02*
X203245295Y-93042857D01*
X203245295Y-93042857D02*
X203388152Y-93042857D01*
X203388152Y-93042857D02*
X203483390Y-93090476D01*
X203483390Y-93090476D02*
X203531009Y-93138095D01*
X203531009Y-93138095D02*
X203578628Y-93233333D01*
X203578628Y-93233333D02*
X203578628Y-93614285D01*
X204054819Y-92090476D02*
X204054819Y-92661904D01*
X204054819Y-92376190D02*
X203054819Y-92376190D01*
X203054819Y-92376190D02*
X203197676Y-92471428D01*
X203197676Y-92471428D02*
X203292914Y-92566666D01*
X203292914Y-92566666D02*
X203340533Y-92661904D01*
X203054819Y-91757142D02*
X203054819Y-91090476D01*
X203054819Y-91090476D02*
X204054819Y-91519047D01*
X223533333Y-80059580D02*
X223485714Y-80107200D01*
X223485714Y-80107200D02*
X223342857Y-80154819D01*
X223342857Y-80154819D02*
X223247619Y-80154819D01*
X223247619Y-80154819D02*
X223104762Y-80107200D01*
X223104762Y-80107200D02*
X223009524Y-80011961D01*
X223009524Y-80011961D02*
X222961905Y-79916723D01*
X222961905Y-79916723D02*
X222914286Y-79726247D01*
X222914286Y-79726247D02*
X222914286Y-79583390D01*
X222914286Y-79583390D02*
X222961905Y-79392914D01*
X222961905Y-79392914D02*
X223009524Y-79297676D01*
X223009524Y-79297676D02*
X223104762Y-79202438D01*
X223104762Y-79202438D02*
X223247619Y-79154819D01*
X223247619Y-79154819D02*
X223342857Y-79154819D01*
X223342857Y-79154819D02*
X223485714Y-79202438D01*
X223485714Y-79202438D02*
X223533333Y-79250057D01*
X224104762Y-79583390D02*
X224009524Y-79535771D01*
X224009524Y-79535771D02*
X223961905Y-79488152D01*
X223961905Y-79488152D02*
X223914286Y-79392914D01*
X223914286Y-79392914D02*
X223914286Y-79345295D01*
X223914286Y-79345295D02*
X223961905Y-79250057D01*
X223961905Y-79250057D02*
X224009524Y-79202438D01*
X224009524Y-79202438D02*
X224104762Y-79154819D01*
X224104762Y-79154819D02*
X224295238Y-79154819D01*
X224295238Y-79154819D02*
X224390476Y-79202438D01*
X224390476Y-79202438D02*
X224438095Y-79250057D01*
X224438095Y-79250057D02*
X224485714Y-79345295D01*
X224485714Y-79345295D02*
X224485714Y-79392914D01*
X224485714Y-79392914D02*
X224438095Y-79488152D01*
X224438095Y-79488152D02*
X224390476Y-79535771D01*
X224390476Y-79535771D02*
X224295238Y-79583390D01*
X224295238Y-79583390D02*
X224104762Y-79583390D01*
X224104762Y-79583390D02*
X224009524Y-79631009D01*
X224009524Y-79631009D02*
X223961905Y-79678628D01*
X223961905Y-79678628D02*
X223914286Y-79773866D01*
X223914286Y-79773866D02*
X223914286Y-79964342D01*
X223914286Y-79964342D02*
X223961905Y-80059580D01*
X223961905Y-80059580D02*
X224009524Y-80107200D01*
X224009524Y-80107200D02*
X224104762Y-80154819D01*
X224104762Y-80154819D02*
X224295238Y-80154819D01*
X224295238Y-80154819D02*
X224390476Y-80107200D01*
X224390476Y-80107200D02*
X224438095Y-80059580D01*
X224438095Y-80059580D02*
X224485714Y-79964342D01*
X224485714Y-79964342D02*
X224485714Y-79773866D01*
X224485714Y-79773866D02*
X224438095Y-79678628D01*
X224438095Y-79678628D02*
X224390476Y-79631009D01*
X224390476Y-79631009D02*
X224295238Y-79583390D01*
X225806819Y-114898566D02*
X225330628Y-115231899D01*
X225806819Y-115469994D02*
X224806819Y-115469994D01*
X224806819Y-115469994D02*
X224806819Y-115089042D01*
X224806819Y-115089042D02*
X224854438Y-114993804D01*
X224854438Y-114993804D02*
X224902057Y-114946185D01*
X224902057Y-114946185D02*
X224997295Y-114898566D01*
X224997295Y-114898566D02*
X225140152Y-114898566D01*
X225140152Y-114898566D02*
X225235390Y-114946185D01*
X225235390Y-114946185D02*
X225283009Y-114993804D01*
X225283009Y-114993804D02*
X225330628Y-115089042D01*
X225330628Y-115089042D02*
X225330628Y-115469994D01*
X224806819Y-114565232D02*
X224806819Y-113898566D01*
X224806819Y-113898566D02*
X225806819Y-114327137D01*
X199359580Y-69466666D02*
X199407200Y-69514285D01*
X199407200Y-69514285D02*
X199454819Y-69657142D01*
X199454819Y-69657142D02*
X199454819Y-69752380D01*
X199454819Y-69752380D02*
X199407200Y-69895237D01*
X199407200Y-69895237D02*
X199311961Y-69990475D01*
X199311961Y-69990475D02*
X199216723Y-70038094D01*
X199216723Y-70038094D02*
X199026247Y-70085713D01*
X199026247Y-70085713D02*
X198883390Y-70085713D01*
X198883390Y-70085713D02*
X198692914Y-70038094D01*
X198692914Y-70038094D02*
X198597676Y-69990475D01*
X198597676Y-69990475D02*
X198502438Y-69895237D01*
X198502438Y-69895237D02*
X198454819Y-69752380D01*
X198454819Y-69752380D02*
X198454819Y-69657142D01*
X198454819Y-69657142D02*
X198502438Y-69514285D01*
X198502438Y-69514285D02*
X198550057Y-69466666D01*
X198550057Y-69085713D02*
X198502438Y-69038094D01*
X198502438Y-69038094D02*
X198454819Y-68942856D01*
X198454819Y-68942856D02*
X198454819Y-68704761D01*
X198454819Y-68704761D02*
X198502438Y-68609523D01*
X198502438Y-68609523D02*
X198550057Y-68561904D01*
X198550057Y-68561904D02*
X198645295Y-68514285D01*
X198645295Y-68514285D02*
X198740533Y-68514285D01*
X198740533Y-68514285D02*
X198883390Y-68561904D01*
X198883390Y-68561904D02*
X199454819Y-69133332D01*
X199454819Y-69133332D02*
X199454819Y-68514285D01*
X192557142Y-101284819D02*
X192223809Y-100808628D01*
X191985714Y-101284819D02*
X191985714Y-100284819D01*
X191985714Y-100284819D02*
X192366666Y-100284819D01*
X192366666Y-100284819D02*
X192461904Y-100332438D01*
X192461904Y-100332438D02*
X192509523Y-100380057D01*
X192509523Y-100380057D02*
X192557142Y-100475295D01*
X192557142Y-100475295D02*
X192557142Y-100618152D01*
X192557142Y-100618152D02*
X192509523Y-100713390D01*
X192509523Y-100713390D02*
X192461904Y-100761009D01*
X192461904Y-100761009D02*
X192366666Y-100808628D01*
X192366666Y-100808628D02*
X191985714Y-100808628D01*
X193509523Y-101284819D02*
X192938095Y-101284819D01*
X193223809Y-101284819D02*
X193223809Y-100284819D01*
X193223809Y-100284819D02*
X193128571Y-100427676D01*
X193128571Y-100427676D02*
X193033333Y-100522914D01*
X193033333Y-100522914D02*
X192938095Y-100570533D01*
X193842857Y-100284819D02*
X194461904Y-100284819D01*
X194461904Y-100284819D02*
X194128571Y-100665771D01*
X194128571Y-100665771D02*
X194271428Y-100665771D01*
X194271428Y-100665771D02*
X194366666Y-100713390D01*
X194366666Y-100713390D02*
X194414285Y-100761009D01*
X194414285Y-100761009D02*
X194461904Y-100856247D01*
X194461904Y-100856247D02*
X194461904Y-101094342D01*
X194461904Y-101094342D02*
X194414285Y-101189580D01*
X194414285Y-101189580D02*
X194366666Y-101237200D01*
X194366666Y-101237200D02*
X194271428Y-101284819D01*
X194271428Y-101284819D02*
X193985714Y-101284819D01*
X193985714Y-101284819D02*
X193890476Y-101237200D01*
X193890476Y-101237200D02*
X193842857Y-101189580D01*
X208759580Y-69466666D02*
X208807200Y-69514285D01*
X208807200Y-69514285D02*
X208854819Y-69657142D01*
X208854819Y-69657142D02*
X208854819Y-69752380D01*
X208854819Y-69752380D02*
X208807200Y-69895237D01*
X208807200Y-69895237D02*
X208711961Y-69990475D01*
X208711961Y-69990475D02*
X208616723Y-70038094D01*
X208616723Y-70038094D02*
X208426247Y-70085713D01*
X208426247Y-70085713D02*
X208283390Y-70085713D01*
X208283390Y-70085713D02*
X208092914Y-70038094D01*
X208092914Y-70038094D02*
X207997676Y-69990475D01*
X207997676Y-69990475D02*
X207902438Y-69895237D01*
X207902438Y-69895237D02*
X207854819Y-69752380D01*
X207854819Y-69752380D02*
X207854819Y-69657142D01*
X207854819Y-69657142D02*
X207902438Y-69514285D01*
X207902438Y-69514285D02*
X207950057Y-69466666D01*
X208854819Y-68514285D02*
X208854819Y-69085713D01*
X208854819Y-68799999D02*
X207854819Y-68799999D01*
X207854819Y-68799999D02*
X207997676Y-68895237D01*
X207997676Y-68895237D02*
X208092914Y-68990475D01*
X208092914Y-68990475D02*
X208140533Y-69085713D01*
X221879142Y-109566480D02*
X221831523Y-109614100D01*
X221831523Y-109614100D02*
X221688666Y-109661719D01*
X221688666Y-109661719D02*
X221593428Y-109661719D01*
X221593428Y-109661719D02*
X221450571Y-109614100D01*
X221450571Y-109614100D02*
X221355333Y-109518861D01*
X221355333Y-109518861D02*
X221307714Y-109423623D01*
X221307714Y-109423623D02*
X221260095Y-109233147D01*
X221260095Y-109233147D02*
X221260095Y-109090290D01*
X221260095Y-109090290D02*
X221307714Y-108899814D01*
X221307714Y-108899814D02*
X221355333Y-108804576D01*
X221355333Y-108804576D02*
X221450571Y-108709338D01*
X221450571Y-108709338D02*
X221593428Y-108661719D01*
X221593428Y-108661719D02*
X221688666Y-108661719D01*
X221688666Y-108661719D02*
X221831523Y-108709338D01*
X221831523Y-108709338D02*
X221879142Y-108756957D01*
X222831523Y-109661719D02*
X222260095Y-109661719D01*
X222545809Y-109661719D02*
X222545809Y-108661719D01*
X222545809Y-108661719D02*
X222450571Y-108804576D01*
X222450571Y-108804576D02*
X222355333Y-108899814D01*
X222355333Y-108899814D02*
X222260095Y-108947433D01*
X223450571Y-108661719D02*
X223545809Y-108661719D01*
X223545809Y-108661719D02*
X223641047Y-108709338D01*
X223641047Y-108709338D02*
X223688666Y-108756957D01*
X223688666Y-108756957D02*
X223736285Y-108852195D01*
X223736285Y-108852195D02*
X223783904Y-109042671D01*
X223783904Y-109042671D02*
X223783904Y-109280766D01*
X223783904Y-109280766D02*
X223736285Y-109471242D01*
X223736285Y-109471242D02*
X223688666Y-109566480D01*
X223688666Y-109566480D02*
X223641047Y-109614100D01*
X223641047Y-109614100D02*
X223545809Y-109661719D01*
X223545809Y-109661719D02*
X223450571Y-109661719D01*
X223450571Y-109661719D02*
X223355333Y-109614100D01*
X223355333Y-109614100D02*
X223307714Y-109566480D01*
X223307714Y-109566480D02*
X223260095Y-109471242D01*
X223260095Y-109471242D02*
X223212476Y-109280766D01*
X223212476Y-109280766D02*
X223212476Y-109042671D01*
X223212476Y-109042671D02*
X223260095Y-108852195D01*
X223260095Y-108852195D02*
X223307714Y-108756957D01*
X223307714Y-108756957D02*
X223355333Y-108709338D01*
X223355333Y-108709338D02*
X223450571Y-108661719D01*
X223833332Y-76192800D02*
X223690475Y-76145180D01*
X223690475Y-76145180D02*
X223452380Y-76145180D01*
X223452380Y-76145180D02*
X223357142Y-76192800D01*
X223357142Y-76192800D02*
X223309523Y-76240419D01*
X223309523Y-76240419D02*
X223261904Y-76335657D01*
X223261904Y-76335657D02*
X223261904Y-76430895D01*
X223261904Y-76430895D02*
X223309523Y-76526133D01*
X223309523Y-76526133D02*
X223357142Y-76573752D01*
X223357142Y-76573752D02*
X223452380Y-76621371D01*
X223452380Y-76621371D02*
X223642856Y-76668990D01*
X223642856Y-76668990D02*
X223738094Y-76716609D01*
X223738094Y-76716609D02*
X223785713Y-76764228D01*
X223785713Y-76764228D02*
X223833332Y-76859466D01*
X223833332Y-76859466D02*
X223833332Y-76954704D01*
X223833332Y-76954704D02*
X223785713Y-77049942D01*
X223785713Y-77049942D02*
X223738094Y-77097561D01*
X223738094Y-77097561D02*
X223642856Y-77145180D01*
X223642856Y-77145180D02*
X223404761Y-77145180D01*
X223404761Y-77145180D02*
X223261904Y-77097561D01*
X222928570Y-77145180D02*
X222690475Y-76145180D01*
X222690475Y-76145180D02*
X222499999Y-76859466D01*
X222499999Y-76859466D02*
X222309523Y-76145180D01*
X222309523Y-76145180D02*
X222071428Y-77145180D01*
X221166666Y-76145180D02*
X221738094Y-76145180D01*
X221452380Y-76145180D02*
X221452380Y-77145180D01*
X221452380Y-77145180D02*
X221547618Y-77002323D01*
X221547618Y-77002323D02*
X221642856Y-76907085D01*
X221642856Y-76907085D02*
X221738094Y-76859466D01*
X223533333Y-83754819D02*
X223200000Y-83278628D01*
X222961905Y-83754819D02*
X222961905Y-82754819D01*
X222961905Y-82754819D02*
X223342857Y-82754819D01*
X223342857Y-82754819D02*
X223438095Y-82802438D01*
X223438095Y-82802438D02*
X223485714Y-82850057D01*
X223485714Y-82850057D02*
X223533333Y-82945295D01*
X223533333Y-82945295D02*
X223533333Y-83088152D01*
X223533333Y-83088152D02*
X223485714Y-83183390D01*
X223485714Y-83183390D02*
X223438095Y-83231009D01*
X223438095Y-83231009D02*
X223342857Y-83278628D01*
X223342857Y-83278628D02*
X222961905Y-83278628D01*
X223914286Y-82850057D02*
X223961905Y-82802438D01*
X223961905Y-82802438D02*
X224057143Y-82754819D01*
X224057143Y-82754819D02*
X224295238Y-82754819D01*
X224295238Y-82754819D02*
X224390476Y-82802438D01*
X224390476Y-82802438D02*
X224438095Y-82850057D01*
X224438095Y-82850057D02*
X224485714Y-82945295D01*
X224485714Y-82945295D02*
X224485714Y-83040533D01*
X224485714Y-83040533D02*
X224438095Y-83183390D01*
X224438095Y-83183390D02*
X223866667Y-83754819D01*
X223866667Y-83754819D02*
X224485714Y-83754819D01*
X201179142Y-109011719D02*
X200845809Y-108535528D01*
X200607714Y-109011719D02*
X200607714Y-108011719D01*
X200607714Y-108011719D02*
X200988666Y-108011719D01*
X200988666Y-108011719D02*
X201083904Y-108059338D01*
X201083904Y-108059338D02*
X201131523Y-108106957D01*
X201131523Y-108106957D02*
X201179142Y-108202195D01*
X201179142Y-108202195D02*
X201179142Y-108345052D01*
X201179142Y-108345052D02*
X201131523Y-108440290D01*
X201131523Y-108440290D02*
X201083904Y-108487909D01*
X201083904Y-108487909D02*
X200988666Y-108535528D01*
X200988666Y-108535528D02*
X200607714Y-108535528D01*
X202131523Y-109011719D02*
X201560095Y-109011719D01*
X201845809Y-109011719D02*
X201845809Y-108011719D01*
X201845809Y-108011719D02*
X201750571Y-108154576D01*
X201750571Y-108154576D02*
X201655333Y-108249814D01*
X201655333Y-108249814D02*
X201560095Y-108297433D01*
X202988666Y-108345052D02*
X202988666Y-109011719D01*
X202750571Y-107964100D02*
X202512476Y-108678385D01*
X202512476Y-108678385D02*
X203131523Y-108678385D01*
X212629142Y-112861719D02*
X212295809Y-112385528D01*
X212057714Y-112861719D02*
X212057714Y-111861719D01*
X212057714Y-111861719D02*
X212438666Y-111861719D01*
X212438666Y-111861719D02*
X212533904Y-111909338D01*
X212533904Y-111909338D02*
X212581523Y-111956957D01*
X212581523Y-111956957D02*
X212629142Y-112052195D01*
X212629142Y-112052195D02*
X212629142Y-112195052D01*
X212629142Y-112195052D02*
X212581523Y-112290290D01*
X212581523Y-112290290D02*
X212533904Y-112337909D01*
X212533904Y-112337909D02*
X212438666Y-112385528D01*
X212438666Y-112385528D02*
X212057714Y-112385528D01*
X213581523Y-112861719D02*
X213010095Y-112861719D01*
X213295809Y-112861719D02*
X213295809Y-111861719D01*
X213295809Y-111861719D02*
X213200571Y-112004576D01*
X213200571Y-112004576D02*
X213105333Y-112099814D01*
X213105333Y-112099814D02*
X213010095Y-112147433D01*
X214200571Y-111861719D02*
X214295809Y-111861719D01*
X214295809Y-111861719D02*
X214391047Y-111909338D01*
X214391047Y-111909338D02*
X214438666Y-111956957D01*
X214438666Y-111956957D02*
X214486285Y-112052195D01*
X214486285Y-112052195D02*
X214533904Y-112242671D01*
X214533904Y-112242671D02*
X214533904Y-112480766D01*
X214533904Y-112480766D02*
X214486285Y-112671242D01*
X214486285Y-112671242D02*
X214438666Y-112766480D01*
X214438666Y-112766480D02*
X214391047Y-112814100D01*
X214391047Y-112814100D02*
X214295809Y-112861719D01*
X214295809Y-112861719D02*
X214200571Y-112861719D01*
X214200571Y-112861719D02*
X214105333Y-112814100D01*
X214105333Y-112814100D02*
X214057714Y-112766480D01*
X214057714Y-112766480D02*
X214010095Y-112671242D01*
X214010095Y-112671242D02*
X213962476Y-112480766D01*
X213962476Y-112480766D02*
X213962476Y-112242671D01*
X213962476Y-112242671D02*
X214010095Y-112052195D01*
X214010095Y-112052195D02*
X214057714Y-111956957D01*
X214057714Y-111956957D02*
X214105333Y-111909338D01*
X214105333Y-111909338D02*
X214200571Y-111861719D01*
X216105333Y-120761719D02*
X215772000Y-120285528D01*
X215533905Y-120761719D02*
X215533905Y-119761719D01*
X215533905Y-119761719D02*
X215914857Y-119761719D01*
X215914857Y-119761719D02*
X216010095Y-119809338D01*
X216010095Y-119809338D02*
X216057714Y-119856957D01*
X216057714Y-119856957D02*
X216105333Y-119952195D01*
X216105333Y-119952195D02*
X216105333Y-120095052D01*
X216105333Y-120095052D02*
X216057714Y-120190290D01*
X216057714Y-120190290D02*
X216010095Y-120237909D01*
X216010095Y-120237909D02*
X215914857Y-120285528D01*
X215914857Y-120285528D02*
X215533905Y-120285528D01*
X216676762Y-120190290D02*
X216581524Y-120142671D01*
X216581524Y-120142671D02*
X216533905Y-120095052D01*
X216533905Y-120095052D02*
X216486286Y-119999814D01*
X216486286Y-119999814D02*
X216486286Y-119952195D01*
X216486286Y-119952195D02*
X216533905Y-119856957D01*
X216533905Y-119856957D02*
X216581524Y-119809338D01*
X216581524Y-119809338D02*
X216676762Y-119761719D01*
X216676762Y-119761719D02*
X216867238Y-119761719D01*
X216867238Y-119761719D02*
X216962476Y-119809338D01*
X216962476Y-119809338D02*
X217010095Y-119856957D01*
X217010095Y-119856957D02*
X217057714Y-119952195D01*
X217057714Y-119952195D02*
X217057714Y-119999814D01*
X217057714Y-119999814D02*
X217010095Y-120095052D01*
X217010095Y-120095052D02*
X216962476Y-120142671D01*
X216962476Y-120142671D02*
X216867238Y-120190290D01*
X216867238Y-120190290D02*
X216676762Y-120190290D01*
X216676762Y-120190290D02*
X216581524Y-120237909D01*
X216581524Y-120237909D02*
X216533905Y-120285528D01*
X216533905Y-120285528D02*
X216486286Y-120380766D01*
X216486286Y-120380766D02*
X216486286Y-120571242D01*
X216486286Y-120571242D02*
X216533905Y-120666480D01*
X216533905Y-120666480D02*
X216581524Y-120714100D01*
X216581524Y-120714100D02*
X216676762Y-120761719D01*
X216676762Y-120761719D02*
X216867238Y-120761719D01*
X216867238Y-120761719D02*
X216962476Y-120714100D01*
X216962476Y-120714100D02*
X217010095Y-120666480D01*
X217010095Y-120666480D02*
X217057714Y-120571242D01*
X217057714Y-120571242D02*
X217057714Y-120380766D01*
X217057714Y-120380766D02*
X217010095Y-120285528D01*
X217010095Y-120285528D02*
X216962476Y-120237909D01*
X216962476Y-120237909D02*
X216867238Y-120190290D01*
X203123809Y-71478628D02*
X203123809Y-71954819D01*
X202790476Y-70954819D02*
X203123809Y-71478628D01*
X203123809Y-71478628D02*
X203457142Y-70954819D01*
X203695238Y-70954819D02*
X204314285Y-70954819D01*
X204314285Y-70954819D02*
X203980952Y-71335771D01*
X203980952Y-71335771D02*
X204123809Y-71335771D01*
X204123809Y-71335771D02*
X204219047Y-71383390D01*
X204219047Y-71383390D02*
X204266666Y-71431009D01*
X204266666Y-71431009D02*
X204314285Y-71526247D01*
X204314285Y-71526247D02*
X204314285Y-71764342D01*
X204314285Y-71764342D02*
X204266666Y-71859580D01*
X204266666Y-71859580D02*
X204219047Y-71907200D01*
X204219047Y-71907200D02*
X204123809Y-71954819D01*
X204123809Y-71954819D02*
X203838095Y-71954819D01*
X203838095Y-71954819D02*
X203742857Y-71907200D01*
X203742857Y-71907200D02*
X203695238Y-71859580D01*
X226226819Y-106644994D02*
X225226819Y-106644994D01*
X225226819Y-106644994D02*
X225226819Y-106406899D01*
X225226819Y-106406899D02*
X225274438Y-106264042D01*
X225274438Y-106264042D02*
X225369676Y-106168804D01*
X225369676Y-106168804D02*
X225464914Y-106121185D01*
X225464914Y-106121185D02*
X225655390Y-106073566D01*
X225655390Y-106073566D02*
X225798247Y-106073566D01*
X225798247Y-106073566D02*
X225988723Y-106121185D01*
X225988723Y-106121185D02*
X226083961Y-106168804D01*
X226083961Y-106168804D02*
X226179200Y-106264042D01*
X226179200Y-106264042D02*
X226226819Y-106406899D01*
X226226819Y-106406899D02*
X226226819Y-106644994D01*
X225322057Y-105692613D02*
X225274438Y-105644994D01*
X225274438Y-105644994D02*
X225226819Y-105549756D01*
X225226819Y-105549756D02*
X225226819Y-105311661D01*
X225226819Y-105311661D02*
X225274438Y-105216423D01*
X225274438Y-105216423D02*
X225322057Y-105168804D01*
X225322057Y-105168804D02*
X225417295Y-105121185D01*
X225417295Y-105121185D02*
X225512533Y-105121185D01*
X225512533Y-105121185D02*
X225655390Y-105168804D01*
X225655390Y-105168804D02*
X226226819Y-105740232D01*
X226226819Y-105740232D02*
X226226819Y-105121185D01*
D10*
X217480952Y-89791946D02*
X217338095Y-89744327D01*
X217338095Y-89744327D02*
X217290476Y-89696708D01*
X217290476Y-89696708D02*
X217242857Y-89601470D01*
X217242857Y-89601470D02*
X217242857Y-89458613D01*
X217242857Y-89458613D02*
X217290476Y-89363375D01*
X217290476Y-89363375D02*
X217338095Y-89315756D01*
X217338095Y-89315756D02*
X217433333Y-89268136D01*
X217433333Y-89268136D02*
X217814285Y-89268136D01*
X217814285Y-89268136D02*
X217814285Y-90268136D01*
X217814285Y-90268136D02*
X217480952Y-90268136D01*
X217480952Y-90268136D02*
X217385714Y-90220517D01*
X217385714Y-90220517D02*
X217338095Y-90172898D01*
X217338095Y-90172898D02*
X217290476Y-90077660D01*
X217290476Y-90077660D02*
X217290476Y-89982422D01*
X217290476Y-89982422D02*
X217338095Y-89887184D01*
X217338095Y-89887184D02*
X217385714Y-89839565D01*
X217385714Y-89839565D02*
X217480952Y-89791946D01*
X217480952Y-89791946D02*
X217814285Y-89791946D01*
X216909523Y-90268136D02*
X216242857Y-90268136D01*
X216242857Y-90268136D02*
X216909523Y-89268136D01*
X216909523Y-89268136D02*
X216242857Y-89268136D01*
X215338095Y-89268136D02*
X215909523Y-89268136D01*
X215623809Y-89268136D02*
X215623809Y-90268136D01*
X215623809Y-90268136D02*
X215719047Y-90125279D01*
X215719047Y-90125279D02*
X215814285Y-90030041D01*
X215814285Y-90030041D02*
X215909523Y-89982422D01*
D11*
X224533332Y-65092800D02*
X224390475Y-65045180D01*
X224390475Y-65045180D02*
X224152380Y-65045180D01*
X224152380Y-65045180D02*
X224057142Y-65092800D01*
X224057142Y-65092800D02*
X224009523Y-65140419D01*
X224009523Y-65140419D02*
X223961904Y-65235657D01*
X223961904Y-65235657D02*
X223961904Y-65330895D01*
X223961904Y-65330895D02*
X224009523Y-65426133D01*
X224009523Y-65426133D02*
X224057142Y-65473752D01*
X224057142Y-65473752D02*
X224152380Y-65521371D01*
X224152380Y-65521371D02*
X224342856Y-65568990D01*
X224342856Y-65568990D02*
X224438094Y-65616609D01*
X224438094Y-65616609D02*
X224485713Y-65664228D01*
X224485713Y-65664228D02*
X224533332Y-65759466D01*
X224533332Y-65759466D02*
X224533332Y-65854704D01*
X224533332Y-65854704D02*
X224485713Y-65949942D01*
X224485713Y-65949942D02*
X224438094Y-65997561D01*
X224438094Y-65997561D02*
X224342856Y-66045180D01*
X224342856Y-66045180D02*
X224104761Y-66045180D01*
X224104761Y-66045180D02*
X223961904Y-65997561D01*
X223628570Y-66045180D02*
X223390475Y-65045180D01*
X223390475Y-65045180D02*
X223199999Y-65759466D01*
X223199999Y-65759466D02*
X223009523Y-65045180D01*
X223009523Y-65045180D02*
X222771428Y-66045180D01*
X222485713Y-66045180D02*
X221866666Y-66045180D01*
X221866666Y-66045180D02*
X222199999Y-65664228D01*
X222199999Y-65664228D02*
X222057142Y-65664228D01*
X222057142Y-65664228D02*
X221961904Y-65616609D01*
X221961904Y-65616609D02*
X221914285Y-65568990D01*
X221914285Y-65568990D02*
X221866666Y-65473752D01*
X221866666Y-65473752D02*
X221866666Y-65235657D01*
X221866666Y-65235657D02*
X221914285Y-65140419D01*
X221914285Y-65140419D02*
X221961904Y-65092800D01*
X221961904Y-65092800D02*
X222057142Y-65045180D01*
X222057142Y-65045180D02*
X222342856Y-65045180D01*
X222342856Y-65045180D02*
X222438094Y-65092800D01*
X222438094Y-65092800D02*
X222485713Y-65140419D01*
X229666666Y-79004819D02*
X229666666Y-79719104D01*
X229666666Y-79719104D02*
X229619047Y-79861961D01*
X229619047Y-79861961D02*
X229523809Y-79957200D01*
X229523809Y-79957200D02*
X229380952Y-80004819D01*
X229380952Y-80004819D02*
X229285714Y-80004819D01*
X230666666Y-80004819D02*
X230095238Y-80004819D01*
X230380952Y-80004819D02*
X230380952Y-79004819D01*
X230380952Y-79004819D02*
X230285714Y-79147676D01*
X230285714Y-79147676D02*
X230190476Y-79242914D01*
X230190476Y-79242914D02*
X230095238Y-79290533D01*
X209533333Y-90459580D02*
X209485714Y-90507200D01*
X209485714Y-90507200D02*
X209342857Y-90554819D01*
X209342857Y-90554819D02*
X209247619Y-90554819D01*
X209247619Y-90554819D02*
X209104762Y-90507200D01*
X209104762Y-90507200D02*
X209009524Y-90411961D01*
X209009524Y-90411961D02*
X208961905Y-90316723D01*
X208961905Y-90316723D02*
X208914286Y-90126247D01*
X208914286Y-90126247D02*
X208914286Y-89983390D01*
X208914286Y-89983390D02*
X208961905Y-89792914D01*
X208961905Y-89792914D02*
X209009524Y-89697676D01*
X209009524Y-89697676D02*
X209104762Y-89602438D01*
X209104762Y-89602438D02*
X209247619Y-89554819D01*
X209247619Y-89554819D02*
X209342857Y-89554819D01*
X209342857Y-89554819D02*
X209485714Y-89602438D01*
X209485714Y-89602438D02*
X209533333Y-89650057D01*
X209866667Y-89554819D02*
X210485714Y-89554819D01*
X210485714Y-89554819D02*
X210152381Y-89935771D01*
X210152381Y-89935771D02*
X210295238Y-89935771D01*
X210295238Y-89935771D02*
X210390476Y-89983390D01*
X210390476Y-89983390D02*
X210438095Y-90031009D01*
X210438095Y-90031009D02*
X210485714Y-90126247D01*
X210485714Y-90126247D02*
X210485714Y-90364342D01*
X210485714Y-90364342D02*
X210438095Y-90459580D01*
X210438095Y-90459580D02*
X210390476Y-90507200D01*
X210390476Y-90507200D02*
X210295238Y-90554819D01*
X210295238Y-90554819D02*
X210009524Y-90554819D01*
X210009524Y-90554819D02*
X209914286Y-90507200D01*
X209914286Y-90507200D02*
X209866667Y-90459580D01*
X198018524Y-81218795D02*
X199347877Y-81218795D01*
X199347877Y-81218795D02*
X199504271Y-81140598D01*
X199504271Y-81140598D02*
X199582469Y-81062401D01*
X199582469Y-81062401D02*
X199660666Y-80906006D01*
X199660666Y-80906006D02*
X199660666Y-80593217D01*
X199660666Y-80593217D02*
X199582469Y-80436823D01*
X199582469Y-80436823D02*
X199504271Y-80358626D01*
X199504271Y-80358626D02*
X199347877Y-80280428D01*
X199347877Y-80280428D02*
X198018524Y-80280428D01*
X198565904Y-78794681D02*
X199660666Y-78794681D01*
X197940327Y-79185667D02*
X199113285Y-79576654D01*
X199113285Y-79576654D02*
X199113285Y-78560089D01*
X217781580Y-99624757D02*
X217829200Y-99672376D01*
X217829200Y-99672376D02*
X217876819Y-99815233D01*
X217876819Y-99815233D02*
X217876819Y-99910471D01*
X217876819Y-99910471D02*
X217829200Y-100053328D01*
X217829200Y-100053328D02*
X217733961Y-100148566D01*
X217733961Y-100148566D02*
X217638723Y-100196185D01*
X217638723Y-100196185D02*
X217448247Y-100243804D01*
X217448247Y-100243804D02*
X217305390Y-100243804D01*
X217305390Y-100243804D02*
X217114914Y-100196185D01*
X217114914Y-100196185D02*
X217019676Y-100148566D01*
X217019676Y-100148566D02*
X216924438Y-100053328D01*
X216924438Y-100053328D02*
X216876819Y-99910471D01*
X216876819Y-99910471D02*
X216876819Y-99815233D01*
X216876819Y-99815233D02*
X216924438Y-99672376D01*
X216924438Y-99672376D02*
X216972057Y-99624757D01*
X217876819Y-98672376D02*
X217876819Y-99243804D01*
X217876819Y-98958090D02*
X216876819Y-98958090D01*
X216876819Y-98958090D02*
X217019676Y-99053328D01*
X217019676Y-99053328D02*
X217114914Y-99148566D01*
X217114914Y-99148566D02*
X217162533Y-99243804D01*
X216972057Y-98291423D02*
X216924438Y-98243804D01*
X216924438Y-98243804D02*
X216876819Y-98148566D01*
X216876819Y-98148566D02*
X216876819Y-97910471D01*
X216876819Y-97910471D02*
X216924438Y-97815233D01*
X216924438Y-97815233D02*
X216972057Y-97767614D01*
X216972057Y-97767614D02*
X217067295Y-97719995D01*
X217067295Y-97719995D02*
X217162533Y-97719995D01*
X217162533Y-97719995D02*
X217305390Y-97767614D01*
X217305390Y-97767614D02*
X217876819Y-98339042D01*
X217876819Y-98339042D02*
X217876819Y-97719995D01*
X194376819Y-110099757D02*
X193900628Y-110433090D01*
X194376819Y-110671185D02*
X193376819Y-110671185D01*
X193376819Y-110671185D02*
X193376819Y-110290233D01*
X193376819Y-110290233D02*
X193424438Y-110194995D01*
X193424438Y-110194995D02*
X193472057Y-110147376D01*
X193472057Y-110147376D02*
X193567295Y-110099757D01*
X193567295Y-110099757D02*
X193710152Y-110099757D01*
X193710152Y-110099757D02*
X193805390Y-110147376D01*
X193805390Y-110147376D02*
X193853009Y-110194995D01*
X193853009Y-110194995D02*
X193900628Y-110290233D01*
X193900628Y-110290233D02*
X193900628Y-110671185D01*
X194376819Y-109147376D02*
X194376819Y-109718804D01*
X194376819Y-109433090D02*
X193376819Y-109433090D01*
X193376819Y-109433090D02*
X193519676Y-109528328D01*
X193519676Y-109528328D02*
X193614914Y-109623566D01*
X193614914Y-109623566D02*
X193662533Y-109718804D01*
X193376819Y-108242614D02*
X193376819Y-108718804D01*
X193376819Y-108718804D02*
X193853009Y-108766423D01*
X193853009Y-108766423D02*
X193805390Y-108718804D01*
X193805390Y-108718804D02*
X193757771Y-108623566D01*
X193757771Y-108623566D02*
X193757771Y-108385471D01*
X193757771Y-108385471D02*
X193805390Y-108290233D01*
X193805390Y-108290233D02*
X193853009Y-108242614D01*
X193853009Y-108242614D02*
X193948247Y-108194995D01*
X193948247Y-108194995D02*
X194186342Y-108194995D01*
X194186342Y-108194995D02*
X194281580Y-108242614D01*
X194281580Y-108242614D02*
X194329200Y-108290233D01*
X194329200Y-108290233D02*
X194376819Y-108385471D01*
X194376819Y-108385471D02*
X194376819Y-108623566D01*
X194376819Y-108623566D02*
X194329200Y-108718804D01*
X194329200Y-108718804D02*
X194281580Y-108766423D01*
X195104761Y-84718157D02*
X195009523Y-84670538D01*
X195009523Y-84670538D02*
X194914285Y-84575300D01*
X194914285Y-84575300D02*
X194771428Y-84432442D01*
X194771428Y-84432442D02*
X194676190Y-84384823D01*
X194676190Y-84384823D02*
X194580952Y-84384823D01*
X194628571Y-84622919D02*
X194533333Y-84575300D01*
X194533333Y-84575300D02*
X194438095Y-84480061D01*
X194438095Y-84480061D02*
X194390476Y-84289585D01*
X194390476Y-84289585D02*
X194390476Y-83956252D01*
X194390476Y-83956252D02*
X194438095Y-83765776D01*
X194438095Y-83765776D02*
X194533333Y-83670538D01*
X194533333Y-83670538D02*
X194628571Y-83622919D01*
X194628571Y-83622919D02*
X194819047Y-83622919D01*
X194819047Y-83622919D02*
X194914285Y-83670538D01*
X194914285Y-83670538D02*
X195009523Y-83765776D01*
X195009523Y-83765776D02*
X195057142Y-83956252D01*
X195057142Y-83956252D02*
X195057142Y-84289585D01*
X195057142Y-84289585D02*
X195009523Y-84480061D01*
X195009523Y-84480061D02*
X194914285Y-84575300D01*
X194914285Y-84575300D02*
X194819047Y-84622919D01*
X194819047Y-84622919D02*
X194628571Y-84622919D01*
X195438095Y-83718157D02*
X195485714Y-83670538D01*
X195485714Y-83670538D02*
X195580952Y-83622919D01*
X195580952Y-83622919D02*
X195819047Y-83622919D01*
X195819047Y-83622919D02*
X195914285Y-83670538D01*
X195914285Y-83670538D02*
X195961904Y-83718157D01*
X195961904Y-83718157D02*
X196009523Y-83813395D01*
X196009523Y-83813395D02*
X196009523Y-83908633D01*
X196009523Y-83908633D02*
X195961904Y-84051490D01*
X195961904Y-84051490D02*
X195390476Y-84622919D01*
X195390476Y-84622919D02*
X196009523Y-84622919D01*
X209679142Y-115916480D02*
X209631523Y-115964100D01*
X209631523Y-115964100D02*
X209488666Y-116011719D01*
X209488666Y-116011719D02*
X209393428Y-116011719D01*
X209393428Y-116011719D02*
X209250571Y-115964100D01*
X209250571Y-115964100D02*
X209155333Y-115868861D01*
X209155333Y-115868861D02*
X209107714Y-115773623D01*
X209107714Y-115773623D02*
X209060095Y-115583147D01*
X209060095Y-115583147D02*
X209060095Y-115440290D01*
X209060095Y-115440290D02*
X209107714Y-115249814D01*
X209107714Y-115249814D02*
X209155333Y-115154576D01*
X209155333Y-115154576D02*
X209250571Y-115059338D01*
X209250571Y-115059338D02*
X209393428Y-115011719D01*
X209393428Y-115011719D02*
X209488666Y-115011719D01*
X209488666Y-115011719D02*
X209631523Y-115059338D01*
X209631523Y-115059338D02*
X209679142Y-115106957D01*
X210631523Y-116011719D02*
X210060095Y-116011719D01*
X210345809Y-116011719D02*
X210345809Y-115011719D01*
X210345809Y-115011719D02*
X210250571Y-115154576D01*
X210250571Y-115154576D02*
X210155333Y-115249814D01*
X210155333Y-115249814D02*
X210060095Y-115297433D01*
X211583904Y-116011719D02*
X211012476Y-116011719D01*
X211298190Y-116011719D02*
X211298190Y-115011719D01*
X211298190Y-115011719D02*
X211202952Y-115154576D01*
X211202952Y-115154576D02*
X211107714Y-115249814D01*
X211107714Y-115249814D02*
X211012476Y-115297433D01*
X208526819Y-103923566D02*
X208526819Y-104399756D01*
X208526819Y-104399756D02*
X207526819Y-104399756D01*
X208526819Y-103066423D02*
X208526819Y-103637851D01*
X208526819Y-103352137D02*
X207526819Y-103352137D01*
X207526819Y-103352137D02*
X207669676Y-103447375D01*
X207669676Y-103447375D02*
X207764914Y-103542613D01*
X207764914Y-103542613D02*
X207812533Y-103637851D01*
X221833905Y-100241719D02*
X221833905Y-99241719D01*
X221833905Y-99241719D02*
X222072000Y-99241719D01*
X222072000Y-99241719D02*
X222214857Y-99289338D01*
X222214857Y-99289338D02*
X222310095Y-99384576D01*
X222310095Y-99384576D02*
X222357714Y-99479814D01*
X222357714Y-99479814D02*
X222405333Y-99670290D01*
X222405333Y-99670290D02*
X222405333Y-99813147D01*
X222405333Y-99813147D02*
X222357714Y-100003623D01*
X222357714Y-100003623D02*
X222310095Y-100098861D01*
X222310095Y-100098861D02*
X222214857Y-100194100D01*
X222214857Y-100194100D02*
X222072000Y-100241719D01*
X222072000Y-100241719D02*
X221833905Y-100241719D01*
X223357714Y-100241719D02*
X222786286Y-100241719D01*
X223072000Y-100241719D02*
X223072000Y-99241719D01*
X223072000Y-99241719D02*
X222976762Y-99384576D01*
X222976762Y-99384576D02*
X222881524Y-99479814D01*
X222881524Y-99479814D02*
X222786286Y-99527433D01*
X222532142Y-70584819D02*
X222198809Y-70108628D01*
X221960714Y-70584819D02*
X221960714Y-69584819D01*
X221960714Y-69584819D02*
X222341666Y-69584819D01*
X222341666Y-69584819D02*
X222436904Y-69632438D01*
X222436904Y-69632438D02*
X222484523Y-69680057D01*
X222484523Y-69680057D02*
X222532142Y-69775295D01*
X222532142Y-69775295D02*
X222532142Y-69918152D01*
X222532142Y-69918152D02*
X222484523Y-70013390D01*
X222484523Y-70013390D02*
X222436904Y-70061009D01*
X222436904Y-70061009D02*
X222341666Y-70108628D01*
X222341666Y-70108628D02*
X221960714Y-70108628D01*
X223484523Y-70584819D02*
X222913095Y-70584819D01*
X223198809Y-70584819D02*
X223198809Y-69584819D01*
X223198809Y-69584819D02*
X223103571Y-69727676D01*
X223103571Y-69727676D02*
X223008333Y-69822914D01*
X223008333Y-69822914D02*
X222913095Y-69870533D01*
X224341666Y-69584819D02*
X224151190Y-69584819D01*
X224151190Y-69584819D02*
X224055952Y-69632438D01*
X224055952Y-69632438D02*
X224008333Y-69680057D01*
X224008333Y-69680057D02*
X223913095Y-69822914D01*
X223913095Y-69822914D02*
X223865476Y-70013390D01*
X223865476Y-70013390D02*
X223865476Y-70394342D01*
X223865476Y-70394342D02*
X223913095Y-70489580D01*
X223913095Y-70489580D02*
X223960714Y-70537200D01*
X223960714Y-70537200D02*
X224055952Y-70584819D01*
X224055952Y-70584819D02*
X224246428Y-70584819D01*
X224246428Y-70584819D02*
X224341666Y-70537200D01*
X224341666Y-70537200D02*
X224389285Y-70489580D01*
X224389285Y-70489580D02*
X224436904Y-70394342D01*
X224436904Y-70394342D02*
X224436904Y-70156247D01*
X224436904Y-70156247D02*
X224389285Y-70061009D01*
X224389285Y-70061009D02*
X224341666Y-70013390D01*
X224341666Y-70013390D02*
X224246428Y-69965771D01*
X224246428Y-69965771D02*
X224055952Y-69965771D01*
X224055952Y-69965771D02*
X223960714Y-70013390D01*
X223960714Y-70013390D02*
X223913095Y-70061009D01*
X223913095Y-70061009D02*
X223865476Y-70156247D01*
D12*
%TO.C,C9*%
X225612000Y-112272480D02*
X225612000Y-111991320D01*
X226632000Y-112272480D02*
X226632000Y-111991320D01*
%TO.C,R6*%
X224959258Y-101584400D02*
X224484742Y-101584400D01*
X224959258Y-102629400D02*
X224484742Y-102629400D01*
%TO.C,Q1*%
X206340000Y-92900000D02*
X206340000Y-92250000D01*
X206340000Y-92900000D02*
X206340000Y-93550000D01*
X209460000Y-92900000D02*
X209460000Y-92250000D01*
X209460000Y-92900000D02*
X209460000Y-93550000D01*
X209740000Y-91977500D02*
X209410000Y-91737500D01*
X209740000Y-91497500D01*
X209740000Y-91977500D01*
G36*
X209740000Y-91977500D02*
G01*
X209410000Y-91737500D01*
X209740000Y-91497500D01*
X209740000Y-91977500D01*
G37*
%TO.C,J2*%
D10*
X185160000Y-101880000D02*
X191129000Y-101880000D01*
X191129000Y-89180000D01*
X185160000Y-89180000D01*
X185160000Y-101880000D01*
X186176000Y-97308000D02*
X185160000Y-97308000D01*
X185160000Y-93701200D01*
X186176000Y-93701200D01*
X186176000Y-97308000D01*
%TO.C,J5*%
X192268000Y-66524000D02*
X188661200Y-66524000D01*
X188661200Y-67540000D01*
X192268000Y-67540000D01*
X192268000Y-66524000D01*
X196840000Y-67540000D02*
X184140000Y-67540000D01*
X184140000Y-61571000D01*
X196840000Y-61571000D01*
X196840000Y-67540000D01*
D12*
%TO.C,C14*%
X204681420Y-112846900D02*
X204962580Y-112846900D01*
X204681420Y-113866900D02*
X204962580Y-113866900D01*
%TO.C,U2*%
X219272000Y-110746900D02*
X217322000Y-110746900D01*
X219272000Y-110746900D02*
X221222000Y-110746900D01*
X219272000Y-115866900D02*
X217322000Y-115866900D01*
X219272000Y-115866900D02*
X221222000Y-115866900D01*
X216572000Y-110841900D02*
X216332000Y-110511900D01*
X216812000Y-110511900D01*
X216572000Y-110841900D01*
G36*
X216572000Y-110841900D02*
G01*
X216332000Y-110511900D01*
X216812000Y-110511900D01*
X216572000Y-110841900D01*
G37*
%TO.C,R12*%
X193437258Y-95877500D02*
X192962742Y-95877500D01*
X193437258Y-96922500D02*
X192962742Y-96922500D01*
%TO.C,R9*%
X216709258Y-116634400D02*
X216234742Y-116634400D01*
X216709258Y-117679400D02*
X216234742Y-117679400D01*
%TO.C,C4*%
X210059420Y-70890000D02*
X210340580Y-70890000D01*
X210059420Y-71910000D02*
X210340580Y-71910000D01*
%TO.C,J4*%
D10*
X232912000Y-111666900D02*
X226943000Y-111666900D01*
X226943000Y-119210700D01*
X232912000Y-119210700D01*
X232912000Y-111666900D01*
X232912000Y-114206900D02*
X231896000Y-114206900D01*
X231896000Y-116746900D01*
X232912000Y-116746900D01*
X232912000Y-114206900D01*
D12*
%TO.C,C13*%
X204681420Y-111146900D02*
X204962580Y-111146900D01*
X204681420Y-112166900D02*
X204962580Y-112166900D01*
%TO.C,R18*%
X195540580Y-78590000D02*
X195259420Y-78590000D01*
X195540580Y-79610000D02*
X195259420Y-79610000D01*
%TO.C,R11*%
X218649500Y-101744642D02*
X218649500Y-102219158D01*
X219694500Y-101744642D02*
X219694500Y-102219158D01*
%TO.C,U1*%
X201322000Y-97696900D02*
X199372000Y-97696900D01*
X201322000Y-97696900D02*
X203272000Y-97696900D01*
X201322000Y-107816900D02*
X199372000Y-107816900D01*
X201322000Y-107816900D02*
X203272000Y-107816900D01*
X198622000Y-97751900D02*
X198382000Y-97421900D01*
X198862000Y-97421900D01*
X198622000Y-97751900D01*
G36*
X198622000Y-97751900D02*
G01*
X198382000Y-97421900D01*
X198862000Y-97421900D01*
X198622000Y-97751900D01*
G37*
%TO.C,R5*%
X227249500Y-112394158D02*
X227249500Y-111919642D01*
X228294500Y-112394158D02*
X228294500Y-111919642D01*
%TO.C,R17*%
X204590000Y-92259420D02*
X204590000Y-92540580D01*
X205610000Y-92259420D02*
X205610000Y-92540580D01*
%TO.C,C8*%
X220859420Y-79090000D02*
X221140580Y-79090000D01*
X220859420Y-80110000D02*
X221140580Y-80110000D01*
%TO.C,R7*%
X223399500Y-114494642D02*
X223399500Y-114969158D01*
X224444500Y-114494642D02*
X224444500Y-114969158D01*
%TO.C,C2*%
X200090000Y-69159420D02*
X200090000Y-69440580D01*
X201110000Y-69159420D02*
X201110000Y-69440580D01*
%TO.C,R1*%
X221337258Y-72877500D02*
X220862742Y-72877500D01*
X221337258Y-73922500D02*
X220862742Y-73922500D01*
%TO.C,R13*%
X193437258Y-98877500D02*
X192962742Y-98877500D01*
X193437258Y-99922500D02*
X192962742Y-99922500D01*
D13*
%TO.C,SW4*%
X228448800Y-99836240D02*
X228448800Y-101278960D01*
X229594340Y-103237300D02*
X230249660Y-103237300D01*
X230249660Y-96379300D02*
X229594340Y-96379300D01*
X231395200Y-102869000D02*
X231395200Y-96747600D01*
D14*
X228334500Y-105015300D02*
G75*
G02*
X227572500Y-105015300I-381000J0D01*
G01*
X227572500Y-105015300D02*
G75*
G02*
X228334500Y-105015300I381000J0D01*
G01*
D12*
%TO.C,C1*%
X206390000Y-69440580D02*
X206390000Y-69159420D01*
X207410000Y-69440580D02*
X207410000Y-69159420D01*
%TO.C,C10*%
X219206420Y-108796900D02*
X219487580Y-108796900D01*
X219206420Y-109816900D02*
X219487580Y-109816900D01*
%TO.C,SW1*%
X219325000Y-74600000D02*
X219325000Y-75800000D01*
X219325000Y-77400000D02*
X219325000Y-78600000D01*
X219325000Y-78600000D02*
X225725000Y-78600000D01*
X225725000Y-74600000D02*
X219325000Y-74600000D01*
X225725000Y-75800000D02*
X225725000Y-74600000D01*
X225725000Y-78600000D02*
X225725000Y-77400000D01*
%TO.C,R2*%
X223462742Y-81177500D02*
X223937258Y-81177500D01*
X223462742Y-82222500D02*
X223937258Y-82222500D01*
%TO.C,R14*%
X201681420Y-109346900D02*
X201962580Y-109346900D01*
X201681420Y-110366900D02*
X201962580Y-110366900D01*
%TO.C,R4*%
X223937258Y-91577500D02*
X223462742Y-91577500D01*
X223937258Y-92622500D02*
X223462742Y-92622500D01*
%TO.C,R10*%
X213559258Y-113384400D02*
X213084742Y-113384400D01*
X213559258Y-114429400D02*
X213084742Y-114429400D01*
%TO.C,R8*%
X216259742Y-118234400D02*
X216734258Y-118234400D01*
X216259742Y-119279400D02*
X216734258Y-119279400D01*
%TO.C,Y3*%
X205250000Y-67900000D02*
X201950000Y-67900000D01*
X205250000Y-70700000D02*
X205250000Y-67900000D01*
%TO.C,D2*%
X217812000Y-104256900D02*
X217812000Y-107556900D01*
X217812000Y-104256900D02*
X223322000Y-104256900D01*
X217812000Y-107556900D02*
X223322000Y-107556900D01*
D10*
%TO.C,BZ1*%
X221101111Y-92300000D02*
G75*
G02*
X212098889Y-92300000I-4501111J0D01*
G01*
X212098889Y-92300000D02*
G75*
G02*
X221101111Y-92300000I4501111J0D01*
G01*
D12*
%TO.C,SW3*%
X220000000Y-63500000D02*
X220000000Y-64700000D01*
X220000000Y-66300000D02*
X220000000Y-67500000D01*
X220000000Y-67500000D02*
X226400000Y-67500000D01*
X226400000Y-63500000D02*
X220000000Y-63500000D01*
X226400000Y-64700000D02*
X226400000Y-63500000D01*
X226400000Y-67500000D02*
X226400000Y-66300000D01*
%TO.C,J1*%
X228670000Y-80550000D02*
X230000000Y-80550000D01*
X228670000Y-81880000D02*
X228670000Y-80550000D01*
X228670000Y-83150000D02*
X228670000Y-93370000D01*
X228670000Y-83150000D02*
X231330000Y-83150000D01*
X228670000Y-93370000D02*
X231330000Y-93370000D01*
X231330000Y-83150000D02*
X231330000Y-93370000D01*
%TO.C,C3*%
X209459420Y-87790000D02*
X209740580Y-87790000D01*
X209459420Y-88810000D02*
X209740580Y-88810000D01*
D13*
%TO.C,U4*%
X202145400Y-75345400D02*
X202145400Y-75828000D01*
X202145400Y-84972000D02*
X202145400Y-85454600D01*
X202145400Y-85454600D02*
X202628000Y-85454600D01*
X202628000Y-75345400D02*
X202145400Y-75345400D01*
X211772000Y-85454600D02*
X212254600Y-85454600D01*
X212254600Y-75345400D02*
X211772000Y-75345400D01*
X212254600Y-75828000D02*
X212254600Y-75345400D01*
X212254600Y-85454600D02*
X212254600Y-84972000D01*
D12*
%TO.C,C12*%
X216962000Y-101841320D02*
X216962000Y-102122480D01*
X217982000Y-101841320D02*
X217982000Y-102122480D01*
%TO.C,R15*%
X194712000Y-109416320D02*
X194712000Y-109697480D01*
X195732000Y-109416320D02*
X195732000Y-109697480D01*
%TO.C,R3*%
X223937258Y-89577500D02*
X223462742Y-89577500D01*
X223937258Y-90622500D02*
X223462742Y-90622500D01*
%TO.C,Q2*%
X195200000Y-80208100D02*
X194550000Y-80208100D01*
X195200000Y-80208100D02*
X195850000Y-80208100D01*
X195200000Y-83328100D02*
X194550000Y-83328100D01*
X195200000Y-83328100D02*
X195850000Y-83328100D01*
X196602500Y-83608100D02*
X196122500Y-83608100D01*
X196362500Y-83278100D01*
X196602500Y-83608100D01*
G36*
X196602500Y-83608100D02*
G01*
X196122500Y-83608100D01*
X196362500Y-83278100D01*
X196602500Y-83608100D01*
G37*
%TO.C,C11*%
X213181420Y-115096900D02*
X213462580Y-115096900D01*
X213181420Y-116116900D02*
X213462580Y-116116900D01*
%TO.C,L1*%
X208822000Y-100056900D02*
X211122000Y-100056900D01*
X208822000Y-107456900D02*
X208822000Y-100056900D01*
X211122000Y-107456900D02*
X208822000Y-107456900D01*
X213922000Y-100056900D02*
X216222000Y-100056900D01*
X216222000Y-100056900D02*
X216222000Y-107456900D01*
X216222000Y-107456900D02*
X213922000Y-107456900D01*
%TO.C,D1*%
X221772000Y-99091900D02*
X224057000Y-99091900D01*
X224057000Y-97621900D02*
X221772000Y-97621900D01*
X224057000Y-99091900D02*
X224057000Y-97621900D01*
%TO.C,R16*%
X223315580Y-68190000D02*
X223034420Y-68190000D01*
X223315580Y-69210000D02*
X223034420Y-69210000D01*
%TO.C,J3*%
X191802000Y-117036900D02*
X191802000Y-115336900D01*
X201142000Y-117036900D02*
X201142000Y-115336900D01*
%TD*%
M02*
