%TF.GenerationSoftware,KiCad,Pcbnew,8.0.4*%
%TF.CreationDate,2025-03-11T16:32:05+07:00*%
%TF.ProjectId,Hoang_Trung_An_BTL,486f616e-675f-4547-9275-6e675f416e5f,rev?*%
%TF.SameCoordinates,Original*%
%TF.FileFunction,Legend,Bot*%
%TF.FilePolarity,Positive*%
%FSLAX46Y46*%
G04 Gerber Fmt 4.6, Leading zero omitted, Abs format (unit mm)*
G04 Created by KiCad (PCBNEW 8.0.4) date 2025-03-11 16:32:05*
%MOMM*%
%LPD*%
G01*
G04 APERTURE LIST*
%ADD10C,0.100000*%
%ADD11C,0.300000*%
G04 APERTURE END LIST*
D10*
X187900000Y-77700000D02*
X190100000Y-77700000D01*
X189000000Y-76700000D02*
X189000000Y-78900000D01*
X230700000Y-109300000D02*
X230700000Y-111500000D01*
X229600000Y-110300000D02*
X231800000Y-110300000D01*
D11*
G36*
X226469162Y-63998756D02*
G01*
X226517216Y-64041470D01*
X226577536Y-64137981D01*
X226622420Y-64497049D01*
X226591410Y-64579740D01*
X226564964Y-64609965D01*
X226488346Y-64650828D01*
X226273662Y-64650828D01*
X226226943Y-64628843D01*
X226142844Y-63956047D01*
X226152631Y-63950828D01*
X226367315Y-63950828D01*
X226469162Y-63998756D01*
G37*
G36*
X213842604Y-63972813D02*
G01*
X213926703Y-64645608D01*
X213916918Y-64650828D01*
X213702233Y-64650828D01*
X213600383Y-64602899D01*
X213552332Y-64560186D01*
X213492011Y-64463674D01*
X213447128Y-64104605D01*
X213478136Y-64021916D01*
X213504583Y-63991691D01*
X213581203Y-63950828D01*
X213795886Y-63950828D01*
X213842604Y-63972813D01*
G37*
G36*
X211359538Y-64417756D02*
G01*
X211407893Y-64495124D01*
X211417062Y-64568476D01*
X211396353Y-64623700D01*
X211345489Y-64650828D01*
X211059376Y-64650828D01*
X211012657Y-64628843D01*
X210981477Y-64379400D01*
X211278030Y-64379400D01*
X211359538Y-64417756D01*
G37*
G36*
X215183448Y-63998756D02*
G01*
X215231502Y-64041470D01*
X215291822Y-64137981D01*
X215336706Y-64497049D01*
X215305696Y-64579740D01*
X215279250Y-64609965D01*
X215202632Y-64650828D01*
X215059376Y-64650828D01*
X214957526Y-64602899D01*
X214909475Y-64560186D01*
X214849154Y-64463674D01*
X214804271Y-64104605D01*
X214835279Y-64021916D01*
X214861726Y-63991691D01*
X214938346Y-63950828D01*
X215081601Y-63950828D01*
X215183448Y-63998756D01*
G37*
G36*
X216620952Y-63498758D02*
G01*
X216737722Y-63602554D01*
X216825623Y-63836957D01*
X216883607Y-64300828D01*
X216855917Y-64522344D01*
X216779250Y-64609966D01*
X216702633Y-64650828D01*
X216487948Y-64650828D01*
X216386098Y-64602899D01*
X216269327Y-64499101D01*
X216181426Y-64264699D01*
X216123442Y-63800827D01*
X216151132Y-63579310D01*
X216227800Y-63491690D01*
X216304418Y-63450828D01*
X216519101Y-63450828D01*
X216620952Y-63498758D01*
G37*
G36*
X220414033Y-63972813D02*
G01*
X220498132Y-64645608D01*
X220488347Y-64650828D01*
X220273662Y-64650828D01*
X220171812Y-64602899D01*
X220123761Y-64560186D01*
X220063440Y-64463674D01*
X220018557Y-64104605D01*
X220049565Y-64021916D01*
X220076012Y-63991691D01*
X220152632Y-63950828D01*
X220367315Y-63950828D01*
X220414033Y-63972813D01*
G37*
G36*
X223805967Y-63989186D02*
G01*
X223854322Y-64066553D01*
X223860246Y-64113944D01*
X223438752Y-64031702D01*
X223458907Y-63977957D01*
X223509774Y-63950828D01*
X223724457Y-63950828D01*
X223805967Y-63989186D01*
G37*
G36*
X229734539Y-63989186D02*
G01*
X229782894Y-64066553D01*
X229788818Y-64113944D01*
X229367324Y-64031702D01*
X229387479Y-63977957D01*
X229438346Y-63950828D01*
X229653029Y-63950828D01*
X229734539Y-63989186D01*
G37*
G36*
X231284499Y-64650828D02*
G01*
X231120690Y-64650828D01*
X230949997Y-64596206D01*
X230829118Y-64488757D01*
X230759227Y-64376932D01*
X230663568Y-64121841D01*
X230641299Y-63943685D01*
X230672497Y-63694097D01*
X230710279Y-63593345D01*
X230791175Y-63500894D01*
X230935115Y-63450828D01*
X231134499Y-63450828D01*
X231284499Y-64650828D01*
G37*
G36*
X231770696Y-65617495D02*
G01*
X203272067Y-65617495D01*
X203272067Y-63575751D01*
X203438734Y-63575751D01*
X203439504Y-63605147D01*
X203457361Y-63748005D01*
X203460126Y-63760226D01*
X203460270Y-63764095D01*
X203462404Y-63770294D01*
X203463851Y-63776686D01*
X203465763Y-63780049D01*
X203469844Y-63791899D01*
X203568059Y-64006184D01*
X203582872Y-64031586D01*
X203584084Y-64032711D01*
X203584806Y-64034200D01*
X203604763Y-64055796D01*
X204274173Y-64650828D01*
X203740132Y-64650828D01*
X203710868Y-64653710D01*
X203656796Y-64676108D01*
X203615412Y-64717492D01*
X203593014Y-64771564D01*
X203593014Y-64830092D01*
X203615412Y-64884164D01*
X203656796Y-64925548D01*
X203710868Y-64947946D01*
X203740132Y-64950828D01*
X204668703Y-64950828D01*
X204697967Y-64947946D01*
X204702097Y-64946235D01*
X204706554Y-64945973D01*
X204728988Y-64935096D01*
X204752039Y-64925548D01*
X204755197Y-64922389D01*
X204759218Y-64920440D01*
X204775784Y-64901802D01*
X204793423Y-64884164D01*
X204795133Y-64880034D01*
X204798102Y-64876695D01*
X204806273Y-64853140D01*
X204815821Y-64830092D01*
X204815821Y-64825620D01*
X204817285Y-64821401D01*
X204815821Y-64796514D01*
X204815821Y-64771564D01*
X205021585Y-64771564D01*
X205021585Y-64830092D01*
X205043983Y-64884164D01*
X205085367Y-64925548D01*
X205139439Y-64947946D01*
X205168703Y-64950828D01*
X206025846Y-64950828D01*
X206055110Y-64947946D01*
X206109182Y-64925548D01*
X206150566Y-64884164D01*
X206172964Y-64830092D01*
X206172964Y-64771564D01*
X206450156Y-64771564D01*
X206450156Y-64830092D01*
X206472554Y-64884164D01*
X206513938Y-64925548D01*
X206568010Y-64947946D01*
X206597274Y-64950828D01*
X207454417Y-64950828D01*
X207483681Y-64947946D01*
X207537753Y-64925548D01*
X207579137Y-64884164D01*
X207601535Y-64830092D01*
X207601535Y-64771564D01*
X207878727Y-64771564D01*
X207878727Y-64830092D01*
X207901125Y-64884164D01*
X207942509Y-64925548D01*
X207996581Y-64947946D01*
X208025845Y-64950828D01*
X208882988Y-64950828D01*
X208912252Y-64947946D01*
X208966324Y-64925548D01*
X209007708Y-64884164D01*
X209030106Y-64830092D01*
X209030106Y-64771564D01*
X209007708Y-64717492D01*
X208966324Y-64676108D01*
X208912252Y-64653710D01*
X208882988Y-64650828D01*
X208586834Y-64650828D01*
X208506020Y-64004324D01*
X209278019Y-64004324D01*
X209278789Y-64033719D01*
X209377003Y-64819434D01*
X209383493Y-64848114D01*
X209412425Y-64898990D01*
X209458622Y-64934922D01*
X209515055Y-64950440D01*
X209573131Y-64943181D01*
X209624007Y-64914249D01*
X209659938Y-64868051D01*
X209675457Y-64811619D01*
X209674687Y-64782223D01*
X209581056Y-64033177D01*
X209601764Y-63977957D01*
X209652631Y-63950828D01*
X209795886Y-63950828D01*
X209897733Y-63998756D01*
X209919718Y-64018297D01*
X210019860Y-64819433D01*
X210026350Y-64848114D01*
X210055282Y-64898990D01*
X210101479Y-64934921D01*
X210157912Y-64950439D01*
X210215988Y-64943180D01*
X210266864Y-64914248D01*
X210302795Y-64868051D01*
X210318314Y-64811618D01*
X210317544Y-64782223D01*
X210220307Y-64004324D01*
X210635162Y-64004324D01*
X210635932Y-64033719D01*
X210734146Y-64819434D01*
X210740636Y-64848114D01*
X210769568Y-64898990D01*
X210815765Y-64934922D01*
X210872198Y-64950440D01*
X210930274Y-64943181D01*
X210951008Y-64931389D01*
X210961976Y-64936551D01*
X210989682Y-64946404D01*
X210993266Y-64946573D01*
X210996581Y-64947946D01*
X211025845Y-64950828D01*
X211382988Y-64950828D01*
X211412252Y-64947946D01*
X211419063Y-64945124D01*
X211426398Y-64944409D01*
X211453576Y-64933181D01*
X211587505Y-64861753D01*
X211600862Y-64852845D01*
X211604435Y-64851222D01*
X211606315Y-64849209D01*
X211611970Y-64845439D01*
X211627595Y-64826434D01*
X211644393Y-64808457D01*
X211647392Y-64802356D01*
X211649140Y-64800231D01*
X211650282Y-64796478D01*
X211657367Y-64782068D01*
X211710938Y-64639210D01*
X211718514Y-64610797D01*
X211718281Y-64603946D01*
X211720100Y-64597333D01*
X211719330Y-64567937D01*
X211701473Y-64425080D01*
X211694983Y-64396399D01*
X211693419Y-64393649D01*
X211692897Y-64390528D01*
X211679831Y-64364185D01*
X211590545Y-64221328D01*
X211572591Y-64198040D01*
X211561575Y-64190184D01*
X211552466Y-64180173D01*
X211527215Y-64165105D01*
X211375429Y-64093677D01*
X211347724Y-64083824D01*
X211344138Y-64083654D01*
X211340824Y-64082282D01*
X211311560Y-64079400D01*
X210987948Y-64079400D01*
X210941229Y-64057414D01*
X210938199Y-64033177D01*
X210958907Y-63977957D01*
X211009774Y-63950828D01*
X211224457Y-63950828D01*
X211345904Y-64007980D01*
X211373610Y-64017833D01*
X211432072Y-64020590D01*
X211487139Y-64000766D01*
X211530428Y-63961378D01*
X211555350Y-63908421D01*
X211557755Y-63857418D01*
X211974796Y-63857418D01*
X211980479Y-63915668D01*
X212008022Y-63967311D01*
X212053230Y-64004481D01*
X212109221Y-64021521D01*
X212167471Y-64015838D01*
X212194649Y-64004610D01*
X212295488Y-63950828D01*
X212438743Y-63950828D01*
X212520253Y-63989186D01*
X212568608Y-64066553D01*
X212568848Y-64068475D01*
X212548139Y-64123700D01*
X212497275Y-64150828D01*
X212320488Y-64150828D01*
X212291224Y-64153710D01*
X212284413Y-64156531D01*
X212277076Y-64157247D01*
X212249899Y-64168476D01*
X212115971Y-64239904D01*
X212102616Y-64248809D01*
X212099043Y-64250434D01*
X212097161Y-64252447D01*
X212091506Y-64256219D01*
X212075879Y-64275224D01*
X212059085Y-64293199D01*
X212056086Y-64299298D01*
X212054336Y-64301427D01*
X212053192Y-64305184D01*
X212046111Y-64319588D01*
X211992539Y-64462445D01*
X211984962Y-64490858D01*
X211985194Y-64497711D01*
X211983376Y-64504325D01*
X211984146Y-64533720D01*
X211993075Y-64605148D01*
X211999565Y-64633829D01*
X212001128Y-64636578D01*
X212001651Y-64639698D01*
X212014717Y-64666042D01*
X212104003Y-64808900D01*
X212121957Y-64832188D01*
X212132973Y-64840044D01*
X212142082Y-64850055D01*
X212167334Y-64865123D01*
X212319119Y-64936551D01*
X212346825Y-64946404D01*
X212350409Y-64946573D01*
X212353724Y-64947946D01*
X212382988Y-64950828D01*
X212668703Y-64950828D01*
X212697967Y-64947946D01*
X212704778Y-64945124D01*
X212712114Y-64944409D01*
X212739291Y-64933181D01*
X212873219Y-64861753D01*
X212897684Y-64845439D01*
X212934854Y-64800230D01*
X212951895Y-64744240D01*
X212946212Y-64685989D01*
X212918670Y-64634347D01*
X212873461Y-64597177D01*
X212817471Y-64580136D01*
X212759220Y-64585819D01*
X212732043Y-64597047D01*
X212631203Y-64650828D01*
X212416519Y-64650828D01*
X212335010Y-64612471D01*
X212286654Y-64535102D01*
X212286414Y-64533178D01*
X212307122Y-64477957D01*
X212357988Y-64450828D01*
X212534774Y-64450828D01*
X212564038Y-64447946D01*
X212570849Y-64445124D01*
X212578184Y-64444409D01*
X212605362Y-64433181D01*
X212739291Y-64361753D01*
X212752648Y-64352845D01*
X212756221Y-64351222D01*
X212758101Y-64349209D01*
X212763756Y-64345439D01*
X212779381Y-64326434D01*
X212796179Y-64308457D01*
X212799178Y-64302356D01*
X212800926Y-64300231D01*
X212802068Y-64296478D01*
X212809153Y-64282068D01*
X212862724Y-64139210D01*
X212870300Y-64110797D01*
X212870067Y-64103946D01*
X212871886Y-64097334D01*
X212871321Y-64075752D01*
X213144091Y-64075752D01*
X213144861Y-64105147D01*
X213198432Y-64533719D01*
X213204922Y-64562399D01*
X213206485Y-64565147D01*
X213207008Y-64568271D01*
X213220074Y-64594614D01*
X213309360Y-64737471D01*
X213315415Y-64745326D01*
X213316948Y-64748486D01*
X213322403Y-64754389D01*
X213327314Y-64760759D01*
X213330174Y-64762799D01*
X213336905Y-64770082D01*
X213417262Y-64841511D01*
X213425411Y-64847433D01*
X213427796Y-64850055D01*
X213434619Y-64854126D01*
X213441048Y-64858799D01*
X213444396Y-64859960D01*
X213453048Y-64865123D01*
X213604834Y-64936551D01*
X213632540Y-64946404D01*
X213636124Y-64946573D01*
X213639439Y-64947946D01*
X213668703Y-64950828D01*
X213954417Y-64950828D01*
X213964729Y-64949812D01*
X214010932Y-65319433D01*
X214017422Y-65348113D01*
X214046354Y-65398990D01*
X214092551Y-65434921D01*
X214148984Y-65450439D01*
X214207060Y-65443180D01*
X214257936Y-65414248D01*
X214293867Y-65368051D01*
X214309386Y-65311618D01*
X214308616Y-65282222D01*
X214157807Y-64075752D01*
X214501234Y-64075752D01*
X214502004Y-64105147D01*
X214555575Y-64533719D01*
X214562065Y-64562399D01*
X214563628Y-64565147D01*
X214564151Y-64568271D01*
X214577217Y-64594614D01*
X214666503Y-64737471D01*
X214672558Y-64745326D01*
X214674091Y-64748486D01*
X214679546Y-64754389D01*
X214684457Y-64760759D01*
X214687317Y-64762799D01*
X214694048Y-64770082D01*
X214774405Y-64841511D01*
X214782554Y-64847433D01*
X214784939Y-64850055D01*
X214791762Y-64854126D01*
X214798191Y-64858799D01*
X214801539Y-64859960D01*
X214810191Y-64865123D01*
X214961977Y-64936551D01*
X214989683Y-64946404D01*
X214993267Y-64946573D01*
X214996582Y-64947946D01*
X215025846Y-64950828D01*
X215240132Y-64950828D01*
X215269396Y-64947946D01*
X215276207Y-64945124D01*
X215283543Y-64944409D01*
X215310720Y-64933181D01*
X215444648Y-64861753D01*
X215462852Y-64849613D01*
X215465507Y-64848301D01*
X215467189Y-64846721D01*
X215469113Y-64845439D01*
X215470997Y-64843147D01*
X215486947Y-64828175D01*
X215549447Y-64756747D01*
X215561939Y-64739271D01*
X215564035Y-64737029D01*
X215565119Y-64734823D01*
X215566548Y-64732825D01*
X215567531Y-64729917D01*
X215577009Y-64710640D01*
X215630581Y-64567783D01*
X215638158Y-64539370D01*
X215637925Y-64532517D01*
X215639744Y-64525904D01*
X215638974Y-64496508D01*
X215585402Y-64067937D01*
X215578912Y-64039256D01*
X215577348Y-64036506D01*
X215576826Y-64033385D01*
X215563760Y-64007042D01*
X215474474Y-63864185D01*
X215468419Y-63856331D01*
X215466886Y-63853169D01*
X215461427Y-63847262D01*
X215456520Y-63840897D01*
X215453659Y-63838857D01*
X215446928Y-63831573D01*
X215400201Y-63790038D01*
X215822663Y-63790038D01*
X215822945Y-63800828D01*
X215822663Y-63811618D01*
X215823287Y-63813890D01*
X215823433Y-63819433D01*
X215885933Y-64319433D01*
X215886809Y-64323305D01*
X215886749Y-64325084D01*
X215889803Y-64336539D01*
X215892423Y-64348114D01*
X215893303Y-64349661D01*
X215894326Y-64353497D01*
X216001469Y-64639211D01*
X216014443Y-64665600D01*
X216019240Y-64670734D01*
X216022306Y-64677057D01*
X216042263Y-64698653D01*
X216202977Y-64841511D01*
X216211125Y-64847433D01*
X216213511Y-64850055D01*
X216220338Y-64854128D01*
X216226764Y-64858799D01*
X216230110Y-64859959D01*
X216238763Y-64865123D01*
X216390549Y-64936551D01*
X216418255Y-64946404D01*
X216421839Y-64946573D01*
X216425154Y-64947946D01*
X216454418Y-64950828D01*
X216740132Y-64950828D01*
X216769396Y-64947946D01*
X216776207Y-64945124D01*
X216783542Y-64944409D01*
X216810720Y-64933181D01*
X216944649Y-64861753D01*
X216962853Y-64849613D01*
X216965508Y-64848301D01*
X216967190Y-64846721D01*
X216969114Y-64845439D01*
X216970998Y-64843147D01*
X216986948Y-64828175D01*
X217111948Y-64685317D01*
X217112267Y-64684870D01*
X217112481Y-64684704D01*
X217112849Y-64684055D01*
X217129049Y-64661396D01*
X217133910Y-64647020D01*
X217141413Y-64633828D01*
X217147560Y-64606662D01*
X217147800Y-64605953D01*
X217147781Y-64605682D01*
X217147903Y-64605147D01*
X217183617Y-64319434D01*
X217183762Y-64313889D01*
X217184387Y-64311618D01*
X217184104Y-64300828D01*
X217184387Y-64290038D01*
X217183762Y-64287765D01*
X217183617Y-64282223D01*
X217121117Y-63782223D01*
X217120597Y-63779927D01*
X218466595Y-63779927D01*
X218469903Y-63838361D01*
X218480017Y-63865973D01*
X218962160Y-64865973D01*
X218963497Y-64868166D01*
X218964465Y-64870553D01*
X219151965Y-65227696D01*
X219163840Y-65245757D01*
X219165163Y-65248486D01*
X219166795Y-65250252D01*
X219168120Y-65252267D01*
X219170454Y-65254211D01*
X219185120Y-65270082D01*
X219265477Y-65341511D01*
X219273626Y-65347433D01*
X219276011Y-65350055D01*
X219282834Y-65354126D01*
X219289263Y-65358799D01*
X219292611Y-65359960D01*
X219301263Y-65365123D01*
X219453048Y-65436551D01*
X219480754Y-65446404D01*
X219539216Y-65449161D01*
X219594282Y-65429337D01*
X219637572Y-65389949D01*
X219662493Y-65336992D01*
X219665250Y-65278529D01*
X219645427Y-65223463D01*
X219606038Y-65180173D01*
X219580787Y-65165105D01*
X219448598Y-65102899D01*
X219404872Y-65064030D01*
X219255993Y-64780453D01*
X219419585Y-64075752D01*
X219715520Y-64075752D01*
X219716290Y-64105147D01*
X219769861Y-64533719D01*
X219776351Y-64562399D01*
X219777914Y-64565147D01*
X219778437Y-64568271D01*
X219791503Y-64594614D01*
X219880789Y-64737471D01*
X219886844Y-64745326D01*
X219888377Y-64748486D01*
X219893832Y-64754389D01*
X219898743Y-64760759D01*
X219901603Y-64762799D01*
X219908334Y-64770082D01*
X219988691Y-64841511D01*
X219996840Y-64847433D01*
X219999225Y-64850055D01*
X220006048Y-64854126D01*
X220012477Y-64858799D01*
X220015825Y-64859960D01*
X220024477Y-64865123D01*
X220176263Y-64936551D01*
X220203969Y-64946404D01*
X220207553Y-64946573D01*
X220210868Y-64947946D01*
X220240132Y-64950828D01*
X220525846Y-64950828D01*
X220555110Y-64947946D01*
X220561921Y-64945124D01*
X220569256Y-64944409D01*
X220596434Y-64933181D01*
X220598100Y-64932292D01*
X220601480Y-64934921D01*
X220657913Y-64950439D01*
X220715989Y-64943180D01*
X220766865Y-64914248D01*
X220802796Y-64868051D01*
X220818315Y-64811618D01*
X220817545Y-64782222D01*
X220691213Y-63771564D01*
X222039442Y-63771564D01*
X222039442Y-63830092D01*
X222061840Y-63884164D01*
X222103224Y-63925548D01*
X222157296Y-63947946D01*
X222186560Y-63950828D01*
X222295886Y-63950828D01*
X222397737Y-63998758D01*
X222445788Y-64041470D01*
X222506107Y-64137980D01*
X222591289Y-64819433D01*
X222597779Y-64848114D01*
X222626711Y-64898990D01*
X222672908Y-64934921D01*
X222729341Y-64950439D01*
X222787417Y-64943180D01*
X222838293Y-64914248D01*
X222874224Y-64868051D01*
X222889743Y-64811618D01*
X222888973Y-64782223D01*
X222791736Y-64004324D01*
X223135162Y-64004324D01*
X223135932Y-64033719D01*
X223153789Y-64176576D01*
X223160279Y-64205257D01*
X223163119Y-64210251D01*
X223164260Y-64215879D01*
X223177497Y-64235535D01*
X223189211Y-64256133D01*
X223193742Y-64259657D01*
X223196952Y-64264423D01*
X223216705Y-64277517D01*
X223235408Y-64292065D01*
X223240945Y-64293587D01*
X223245734Y-64296762D01*
X223273904Y-64305195D01*
X223899408Y-64427244D01*
X223917062Y-64568476D01*
X223896353Y-64623700D01*
X223845489Y-64650828D01*
X223630804Y-64650828D01*
X223509357Y-64593677D01*
X223481651Y-64583824D01*
X223423189Y-64581067D01*
X223368123Y-64600891D01*
X223324833Y-64640279D01*
X223299912Y-64693237D01*
X223297155Y-64751699D01*
X223316979Y-64806765D01*
X223356367Y-64850055D01*
X223381619Y-64865123D01*
X223533405Y-64936551D01*
X223561111Y-64946404D01*
X223564695Y-64946573D01*
X223568010Y-64947946D01*
X223597274Y-64950828D01*
X223882988Y-64950828D01*
X223912252Y-64947946D01*
X223919063Y-64945124D01*
X223926398Y-64944409D01*
X223953576Y-64933181D01*
X224087505Y-64861753D01*
X224100862Y-64852845D01*
X224104435Y-64851222D01*
X224106315Y-64849209D01*
X224111970Y-64845439D01*
X224127595Y-64826434D01*
X224144393Y-64808457D01*
X224147392Y-64802356D01*
X224149140Y-64800231D01*
X224150282Y-64796478D01*
X224157367Y-64782068D01*
X224210938Y-64639210D01*
X224218514Y-64610797D01*
X224218281Y-64603945D01*
X224220100Y-64597332D01*
X224219330Y-64567937D01*
X224148879Y-64004324D01*
X224492305Y-64004324D01*
X224493075Y-64033719D01*
X224591289Y-64819434D01*
X224597779Y-64848114D01*
X224626711Y-64898990D01*
X224672908Y-64934922D01*
X224729341Y-64950440D01*
X224787417Y-64943181D01*
X224838293Y-64914249D01*
X224874224Y-64868051D01*
X224889743Y-64811619D01*
X224888973Y-64782223D01*
X224795342Y-64033177D01*
X224816050Y-63977957D01*
X224866917Y-63950828D01*
X225010172Y-63950828D01*
X225112019Y-63998756D01*
X225134004Y-64018297D01*
X225234146Y-64819433D01*
X225240636Y-64848114D01*
X225269568Y-64898990D01*
X225315765Y-64934921D01*
X225372198Y-64950439D01*
X225430274Y-64943180D01*
X225481150Y-64914248D01*
X225517081Y-64868051D01*
X225532600Y-64811618D01*
X225531830Y-64782223D01*
X225407807Y-63790038D01*
X225822662Y-63790038D01*
X225823432Y-63819433D01*
X225975218Y-65033719D01*
X225981708Y-65062400D01*
X225983271Y-65065149D01*
X225983794Y-65068271D01*
X225996860Y-65094614D01*
X226086146Y-65237471D01*
X226092201Y-65245326D01*
X226093734Y-65248486D01*
X226099189Y-65254389D01*
X226104100Y-65260759D01*
X226106960Y-65262799D01*
X226113691Y-65270082D01*
X226194048Y-65341511D01*
X226202197Y-65347433D01*
X226204582Y-65350055D01*
X226211405Y-65354126D01*
X226217834Y-65358799D01*
X226221182Y-65359960D01*
X226229834Y-65365123D01*
X226381619Y-65436551D01*
X226409325Y-65446404D01*
X226412909Y-65446573D01*
X226416224Y-65447946D01*
X226445488Y-65450828D01*
X226659774Y-65450828D01*
X226689038Y-65447946D01*
X226695849Y-65445124D01*
X226703184Y-65444409D01*
X226730362Y-65433181D01*
X226864291Y-65361753D01*
X226888756Y-65345439D01*
X226925926Y-65300231D01*
X226942967Y-65244241D01*
X226937285Y-65185990D01*
X226909742Y-65134347D01*
X226864534Y-65097177D01*
X226808544Y-65080136D01*
X226750293Y-65085818D01*
X226723116Y-65097047D01*
X226622275Y-65150828D01*
X226479019Y-65150828D01*
X226377169Y-65102899D01*
X226329118Y-65060186D01*
X226268797Y-64963674D01*
X226267192Y-64950828D01*
X226525846Y-64950828D01*
X226555110Y-64947946D01*
X226561921Y-64945124D01*
X226569257Y-64944409D01*
X226596434Y-64933181D01*
X226730362Y-64861753D01*
X226748566Y-64849613D01*
X226751221Y-64848301D01*
X226752903Y-64846721D01*
X226754827Y-64845439D01*
X226756711Y-64843147D01*
X226772661Y-64828175D01*
X226835161Y-64756747D01*
X226847653Y-64739271D01*
X226849749Y-64737029D01*
X226850833Y-64734823D01*
X226852262Y-64732825D01*
X226853245Y-64729917D01*
X226862723Y-64710640D01*
X226916295Y-64567783D01*
X226923872Y-64539370D01*
X226923639Y-64532517D01*
X226925458Y-64525904D01*
X226924688Y-64496508D01*
X226871116Y-64067937D01*
X226864626Y-64039256D01*
X226863062Y-64036506D01*
X226862540Y-64033385D01*
X226849474Y-64007042D01*
X226760188Y-63864185D01*
X226754133Y-63856331D01*
X226752600Y-63853169D01*
X226747141Y-63847262D01*
X226742234Y-63840897D01*
X226739373Y-63838857D01*
X226732642Y-63831573D01*
X226685915Y-63790038D01*
X227179805Y-63790038D01*
X227180575Y-63819433D01*
X227305575Y-64819433D01*
X227312065Y-64848114D01*
X227340997Y-64898990D01*
X227387194Y-64934921D01*
X227443627Y-64950439D01*
X227501703Y-64943180D01*
X227552579Y-64914248D01*
X227588510Y-64868051D01*
X227604029Y-64811618D01*
X227603259Y-64782223D01*
X227487658Y-63857418D01*
X227903368Y-63857418D01*
X227909051Y-63915668D01*
X227936594Y-63967311D01*
X227981802Y-64004481D01*
X228037793Y-64021521D01*
X228096043Y-64015838D01*
X228123221Y-64004610D01*
X228224060Y-63950828D01*
X228367315Y-63950828D01*
X228448825Y-63989186D01*
X228497180Y-64066553D01*
X228497420Y-64068475D01*
X228476711Y-64123700D01*
X228425847Y-64150828D01*
X228249060Y-64150828D01*
X228219796Y-64153710D01*
X228212985Y-64156531D01*
X228205648Y-64157247D01*
X228178471Y-64168476D01*
X228044543Y-64239904D01*
X228031188Y-64248809D01*
X228027615Y-64250434D01*
X228025733Y-64252447D01*
X228020078Y-64256219D01*
X228004451Y-64275224D01*
X227987657Y-64293199D01*
X227984658Y-64299298D01*
X227982908Y-64301427D01*
X227981764Y-64305184D01*
X227974683Y-64319588D01*
X227921111Y-64462445D01*
X227913534Y-64490858D01*
X227913766Y-64497711D01*
X227911948Y-64504325D01*
X227912718Y-64533720D01*
X227921647Y-64605148D01*
X227928137Y-64633829D01*
X227929700Y-64636578D01*
X227930223Y-64639698D01*
X227943289Y-64666042D01*
X228032575Y-64808900D01*
X228050529Y-64832188D01*
X228061545Y-64840044D01*
X228070654Y-64850055D01*
X228095906Y-64865123D01*
X228247691Y-64936551D01*
X228275397Y-64946404D01*
X228278981Y-64946573D01*
X228282296Y-64947946D01*
X228311560Y-64950828D01*
X228597275Y-64950828D01*
X228626539Y-64947946D01*
X228633350Y-64945124D01*
X228640686Y-64944409D01*
X228667863Y-64933181D01*
X228801791Y-64861753D01*
X228826256Y-64845439D01*
X228863426Y-64800230D01*
X228880467Y-64744240D01*
X228874784Y-64685989D01*
X228847242Y-64634347D01*
X228802033Y-64597177D01*
X228746043Y-64580136D01*
X228687792Y-64585819D01*
X228660615Y-64597047D01*
X228559775Y-64650828D01*
X228345091Y-64650828D01*
X228263582Y-64612471D01*
X228215226Y-64535102D01*
X228214986Y-64533178D01*
X228235694Y-64477957D01*
X228286560Y-64450828D01*
X228463346Y-64450828D01*
X228492610Y-64447946D01*
X228499421Y-64445124D01*
X228506756Y-64444409D01*
X228533934Y-64433181D01*
X228667863Y-64361753D01*
X228681220Y-64352845D01*
X228684793Y-64351222D01*
X228686673Y-64349209D01*
X228692328Y-64345439D01*
X228707953Y-64326434D01*
X228724751Y-64308457D01*
X228727750Y-64302356D01*
X228729498Y-64300231D01*
X228730640Y-64296478D01*
X228737725Y-64282068D01*
X228791296Y-64139210D01*
X228798872Y-64110797D01*
X228798639Y-64103946D01*
X228800458Y-64097334D01*
X228799688Y-64067938D01*
X228791737Y-64004324D01*
X229063734Y-64004324D01*
X229064504Y-64033719D01*
X229082361Y-64176576D01*
X229088851Y-64205257D01*
X229091691Y-64210251D01*
X229092832Y-64215879D01*
X229106069Y-64235535D01*
X229117783Y-64256133D01*
X229122314Y-64259657D01*
X229125524Y-64264423D01*
X229145277Y-64277517D01*
X229163980Y-64292065D01*
X229169517Y-64293587D01*
X229174306Y-64296762D01*
X229202476Y-64305195D01*
X229827980Y-64427244D01*
X229845634Y-64568476D01*
X229824925Y-64623700D01*
X229774061Y-64650828D01*
X229559376Y-64650828D01*
X229437929Y-64593677D01*
X229410223Y-64583824D01*
X229351761Y-64581067D01*
X229296695Y-64600891D01*
X229253405Y-64640279D01*
X229228484Y-64693237D01*
X229225727Y-64751699D01*
X229245551Y-64806765D01*
X229284939Y-64850055D01*
X229310191Y-64865123D01*
X229461977Y-64936551D01*
X229489683Y-64946404D01*
X229493267Y-64946573D01*
X229496582Y-64947946D01*
X229525846Y-64950828D01*
X229811560Y-64950828D01*
X229840824Y-64947946D01*
X229847635Y-64945124D01*
X229854970Y-64944409D01*
X229882148Y-64933181D01*
X230016077Y-64861753D01*
X230029434Y-64852845D01*
X230033007Y-64851222D01*
X230034887Y-64849209D01*
X230040542Y-64845439D01*
X230056167Y-64826434D01*
X230072965Y-64808457D01*
X230075964Y-64802356D01*
X230077712Y-64800231D01*
X230078854Y-64796478D01*
X230085939Y-64782068D01*
X230139510Y-64639210D01*
X230147086Y-64610797D01*
X230146853Y-64603945D01*
X230148672Y-64597332D01*
X230147902Y-64567937D01*
X230076474Y-63996509D01*
X230069984Y-63967828D01*
X230068420Y-63965078D01*
X230067898Y-63961957D01*
X230054832Y-63935614D01*
X230053132Y-63932894D01*
X230340520Y-63932894D01*
X230340802Y-63943684D01*
X230340520Y-63954475D01*
X230341144Y-63956747D01*
X230341290Y-63962290D01*
X230368075Y-64176576D01*
X230368951Y-64180448D01*
X230368891Y-64182227D01*
X230371945Y-64193682D01*
X230374565Y-64205257D01*
X230375445Y-64206805D01*
X230376468Y-64210640D01*
X230483611Y-64496354D01*
X230483764Y-64496666D01*
X230483794Y-64496842D01*
X230490283Y-64509924D01*
X230496585Y-64522743D01*
X230496703Y-64522870D01*
X230496860Y-64523185D01*
X230586146Y-64666042D01*
X230592201Y-64673897D01*
X230593734Y-64677057D01*
X230599189Y-64682960D01*
X230604100Y-64689330D01*
X230606960Y-64691370D01*
X230613691Y-64698653D01*
X230774405Y-64841511D01*
X230798192Y-64858799D01*
X230799939Y-64859405D01*
X230801351Y-64860600D01*
X230828344Y-64872264D01*
X231051558Y-64943692D01*
X231064395Y-64946448D01*
X231068010Y-64947946D01*
X231074211Y-64948556D01*
X231080308Y-64949866D01*
X231084209Y-64949541D01*
X231097274Y-64950828D01*
X231454417Y-64950828D01*
X231483681Y-64947946D01*
X231492370Y-64944346D01*
X231501703Y-64943180D01*
X231519178Y-64933241D01*
X231537753Y-64925548D01*
X231544404Y-64918896D01*
X231552579Y-64914248D01*
X231564920Y-64898381D01*
X231579137Y-64884164D01*
X231582736Y-64875473D01*
X231588510Y-64868051D01*
X231593840Y-64848668D01*
X231601535Y-64830092D01*
X231601535Y-64820687D01*
X231604029Y-64811618D01*
X231603259Y-64782222D01*
X231415759Y-63282223D01*
X231414035Y-63274604D01*
X231414035Y-63271564D01*
X231412518Y-63267903D01*
X231409269Y-63253542D01*
X231399330Y-63236066D01*
X231391637Y-63217492D01*
X231384985Y-63210840D01*
X231380337Y-63202666D01*
X231364470Y-63190325D01*
X231350253Y-63176108D01*
X231341562Y-63172508D01*
X231334140Y-63166735D01*
X231314757Y-63161404D01*
X231296181Y-63153710D01*
X231281528Y-63152267D01*
X231277707Y-63151216D01*
X231274688Y-63151593D01*
X231266917Y-63150828D01*
X230909774Y-63150828D01*
X230892939Y-63152485D01*
X230889082Y-63152262D01*
X230884848Y-63153282D01*
X230880510Y-63153710D01*
X230876936Y-63155190D01*
X230860496Y-63159154D01*
X230655139Y-63230583D01*
X230628446Y-63242919D01*
X230621412Y-63249180D01*
X230612970Y-63253356D01*
X230591531Y-63273481D01*
X230466531Y-63416338D01*
X230454036Y-63433814D01*
X230451941Y-63436057D01*
X230450857Y-63438261D01*
X230449429Y-63440259D01*
X230448445Y-63443166D01*
X230438967Y-63462446D01*
X230385397Y-63605303D01*
X230384374Y-63609138D01*
X230383494Y-63610686D01*
X230380875Y-63622258D01*
X230377820Y-63633715D01*
X230377880Y-63635493D01*
X230377004Y-63639366D01*
X230341290Y-63925080D01*
X230341144Y-63930621D01*
X230340520Y-63932894D01*
X230053132Y-63932894D01*
X229965546Y-63792757D01*
X229947592Y-63769469D01*
X229936573Y-63761611D01*
X229927467Y-63751603D01*
X229902216Y-63736534D01*
X229750430Y-63665105D01*
X229722724Y-63655252D01*
X229719138Y-63655082D01*
X229715824Y-63653710D01*
X229686560Y-63650828D01*
X229400846Y-63650828D01*
X229371582Y-63653710D01*
X229364770Y-63656531D01*
X229357435Y-63657247D01*
X229330257Y-63668475D01*
X229196329Y-63739904D01*
X229182971Y-63748811D01*
X229179399Y-63750435D01*
X229177518Y-63752447D01*
X229171864Y-63756218D01*
X229156237Y-63775223D01*
X229139441Y-63793200D01*
X229136442Y-63799299D01*
X229134693Y-63801427D01*
X229133550Y-63805181D01*
X229126467Y-63819589D01*
X229072897Y-63962446D01*
X229065320Y-63990858D01*
X229065552Y-63997710D01*
X229063734Y-64004324D01*
X228791737Y-64004324D01*
X228790760Y-63996510D01*
X228784271Y-63967829D01*
X228782706Y-63965077D01*
X228782184Y-63961957D01*
X228769118Y-63935614D01*
X228679832Y-63792757D01*
X228661878Y-63769469D01*
X228650859Y-63761611D01*
X228641753Y-63751603D01*
X228616502Y-63736534D01*
X228464716Y-63665105D01*
X228437010Y-63655252D01*
X228433424Y-63655082D01*
X228430110Y-63653710D01*
X228400846Y-63650828D01*
X228186560Y-63650828D01*
X228157296Y-63653710D01*
X228150485Y-63656531D01*
X228143148Y-63657247D01*
X228115971Y-63668476D01*
X227982043Y-63739904D01*
X227957578Y-63756219D01*
X227920408Y-63801427D01*
X227903368Y-63857418D01*
X227487658Y-63857418D01*
X227478259Y-63782223D01*
X227471769Y-63753542D01*
X227442837Y-63702666D01*
X227396640Y-63666735D01*
X227340207Y-63651216D01*
X227282131Y-63658476D01*
X227231255Y-63687408D01*
X227195324Y-63733605D01*
X227179805Y-63790038D01*
X226685915Y-63790038D01*
X226652285Y-63760145D01*
X226644134Y-63754221D01*
X226641752Y-63751603D01*
X226634931Y-63747532D01*
X226628498Y-63742857D01*
X226625150Y-63741695D01*
X226616501Y-63736534D01*
X226464716Y-63665105D01*
X226437010Y-63655253D01*
X226433426Y-63655083D01*
X226430110Y-63653710D01*
X226400846Y-63650828D01*
X226115131Y-63650828D01*
X226085867Y-63653710D01*
X226079056Y-63656531D01*
X226071719Y-63657247D01*
X226044542Y-63668476D01*
X226042877Y-63669363D01*
X226039497Y-63666735D01*
X225983064Y-63651216D01*
X225924988Y-63658476D01*
X225874112Y-63687408D01*
X225838181Y-63733605D01*
X225822662Y-63790038D01*
X225407807Y-63790038D01*
X225406830Y-63782223D01*
X225400340Y-63753542D01*
X225371408Y-63702666D01*
X225325211Y-63666735D01*
X225268778Y-63651216D01*
X225210702Y-63658476D01*
X225159826Y-63687408D01*
X225158523Y-63689082D01*
X225107573Y-63665105D01*
X225079867Y-63655253D01*
X225076283Y-63655083D01*
X225072967Y-63653710D01*
X225043703Y-63650828D01*
X224829417Y-63650828D01*
X224800153Y-63653710D01*
X224793341Y-63656531D01*
X224786006Y-63657247D01*
X224758828Y-63668475D01*
X224624900Y-63739904D01*
X224611542Y-63748811D01*
X224607970Y-63750435D01*
X224606089Y-63752447D01*
X224600435Y-63756218D01*
X224584808Y-63775223D01*
X224568012Y-63793200D01*
X224565013Y-63799299D01*
X224563264Y-63801427D01*
X224562121Y-63805181D01*
X224555038Y-63819589D01*
X224501468Y-63962446D01*
X224493891Y-63990858D01*
X224494123Y-63997710D01*
X224492305Y-64004324D01*
X224148879Y-64004324D01*
X224147902Y-63996509D01*
X224141412Y-63967828D01*
X224139848Y-63965078D01*
X224139326Y-63961957D01*
X224126260Y-63935614D01*
X224036974Y-63792757D01*
X224019020Y-63769469D01*
X224008001Y-63761611D01*
X223998895Y-63751603D01*
X223973644Y-63736534D01*
X223821858Y-63665105D01*
X223794152Y-63655252D01*
X223790566Y-63655082D01*
X223787252Y-63653710D01*
X223757988Y-63650828D01*
X223472274Y-63650828D01*
X223443010Y-63653710D01*
X223436198Y-63656531D01*
X223428863Y-63657247D01*
X223401685Y-63668475D01*
X223267757Y-63739904D01*
X223254399Y-63748811D01*
X223250827Y-63750435D01*
X223248946Y-63752447D01*
X223243292Y-63756218D01*
X223227665Y-63775223D01*
X223210869Y-63793200D01*
X223207870Y-63799299D01*
X223206121Y-63801427D01*
X223204978Y-63805181D01*
X223197895Y-63819589D01*
X223144325Y-63962446D01*
X223136748Y-63990858D01*
X223136980Y-63997710D01*
X223135162Y-64004324D01*
X222791736Y-64004324D01*
X222763973Y-63782223D01*
X222757483Y-63753542D01*
X222728551Y-63702666D01*
X222682354Y-63666735D01*
X222625921Y-63651216D01*
X222567845Y-63658476D01*
X222516969Y-63687408D01*
X222496528Y-63713689D01*
X222393287Y-63665105D01*
X222365581Y-63655252D01*
X222361995Y-63655082D01*
X222358681Y-63653710D01*
X222329417Y-63650828D01*
X222186560Y-63650828D01*
X222157296Y-63653710D01*
X222103224Y-63676108D01*
X222061840Y-63717492D01*
X222039442Y-63771564D01*
X220691213Y-63771564D01*
X220638873Y-63352845D01*
X227055678Y-63352845D01*
X227057590Y-63381531D01*
X227059272Y-63410109D01*
X227059532Y-63410645D01*
X227059572Y-63411242D01*
X227072281Y-63436941D01*
X227084805Y-63462773D01*
X227085344Y-63463356D01*
X227085516Y-63463704D01*
X227086296Y-63464387D01*
X227104763Y-63484369D01*
X227185120Y-63555797D01*
X227208907Y-63573085D01*
X227209470Y-63573280D01*
X227209919Y-63573673D01*
X227214082Y-63575080D01*
X227217551Y-63577779D01*
X227241112Y-63584257D01*
X227264201Y-63592268D01*
X227264798Y-63592232D01*
X227265361Y-63592423D01*
X227269743Y-63592130D01*
X227273984Y-63593297D01*
X227298228Y-63590266D01*
X227322626Y-63588831D01*
X227323162Y-63588570D01*
X227323758Y-63588531D01*
X227327698Y-63586582D01*
X227332060Y-63586037D01*
X227353299Y-63573959D01*
X227375290Y-63563297D01*
X227375685Y-63562851D01*
X227376221Y-63562587D01*
X227380712Y-63558370D01*
X227382936Y-63557106D01*
X227385307Y-63554057D01*
X227397660Y-63542461D01*
X227460160Y-63471033D01*
X227475982Y-63448902D01*
X227476673Y-63448125D01*
X227476800Y-63447757D01*
X227477262Y-63447112D01*
X227486471Y-63419881D01*
X227495856Y-63392831D01*
X227495821Y-63392236D01*
X227496013Y-63391669D01*
X227494096Y-63362916D01*
X227492419Y-63334406D01*
X227492159Y-63333871D01*
X227492120Y-63333273D01*
X227479347Y-63307445D01*
X227466886Y-63281742D01*
X227466350Y-63281162D01*
X227466176Y-63280810D01*
X227465385Y-63280118D01*
X227446929Y-63260146D01*
X227366572Y-63188717D01*
X227342785Y-63171429D01*
X227342220Y-63171233D01*
X227341771Y-63170840D01*
X227337607Y-63169431D01*
X227334140Y-63166735D01*
X227310577Y-63160255D01*
X227287491Y-63152246D01*
X227286893Y-63152281D01*
X227286328Y-63152090D01*
X227281947Y-63152382D01*
X227277707Y-63151216D01*
X227253455Y-63154247D01*
X227229066Y-63155682D01*
X227228526Y-63155943D01*
X227227932Y-63155983D01*
X227223993Y-63157930D01*
X227219631Y-63158476D01*
X227198391Y-63170554D01*
X227176402Y-63181216D01*
X227176006Y-63181661D01*
X227175469Y-63181927D01*
X227170975Y-63186145D01*
X227168755Y-63187408D01*
X227166386Y-63190453D01*
X227154030Y-63202053D01*
X227091530Y-63273482D01*
X227075712Y-63295607D01*
X227075017Y-63296390D01*
X227074888Y-63296760D01*
X227074429Y-63297403D01*
X227065231Y-63324596D01*
X227055835Y-63351684D01*
X227055869Y-63352277D01*
X227055678Y-63352845D01*
X220638873Y-63352845D01*
X220630045Y-63282223D01*
X220623555Y-63253542D01*
X220594623Y-63202666D01*
X220548426Y-63166735D01*
X220491993Y-63151216D01*
X220433917Y-63158476D01*
X220383041Y-63187408D01*
X220347110Y-63233605D01*
X220331591Y-63290038D01*
X220332361Y-63319433D01*
X220373785Y-63650828D01*
X220115132Y-63650828D01*
X220085868Y-63653710D01*
X220079056Y-63656531D01*
X220071721Y-63657247D01*
X220044543Y-63668475D01*
X219910615Y-63739904D01*
X219892413Y-63752041D01*
X219889757Y-63753355D01*
X219888073Y-63754935D01*
X219886150Y-63756218D01*
X219884265Y-63758509D01*
X219868317Y-63773481D01*
X219805817Y-63844909D01*
X219793322Y-63862385D01*
X219791227Y-63864628D01*
X219790143Y-63866832D01*
X219788715Y-63868830D01*
X219787731Y-63871737D01*
X219778253Y-63891017D01*
X219724683Y-64033874D01*
X219717106Y-64062286D01*
X219717338Y-64069138D01*
X219715520Y-64075752D01*
X219419585Y-64075752D01*
X219475532Y-63834748D01*
X219479342Y-63805590D01*
X219469751Y-63747854D01*
X219438797Y-63698184D01*
X219391191Y-63664139D01*
X219334179Y-63650904D01*
X219276442Y-63660494D01*
X219226772Y-63691448D01*
X219192727Y-63739055D01*
X219183302Y-63766909D01*
X219047452Y-64352109D01*
X218750247Y-63735683D01*
X218734942Y-63710575D01*
X218691283Y-63671596D01*
X218636033Y-63652291D01*
X218577599Y-63655599D01*
X218524879Y-63681018D01*
X218485900Y-63724677D01*
X218466595Y-63779927D01*
X217120597Y-63779927D01*
X217120240Y-63778350D01*
X217120301Y-63776572D01*
X217117246Y-63765118D01*
X217114627Y-63753542D01*
X217113746Y-63751993D01*
X217112724Y-63748160D01*
X217005581Y-63462445D01*
X216992608Y-63436057D01*
X216987809Y-63430921D01*
X216984744Y-63424599D01*
X216964786Y-63403003D01*
X216804073Y-63260146D01*
X216795921Y-63254221D01*
X216793539Y-63251603D01*
X216786716Y-63247531D01*
X216780286Y-63242858D01*
X216776939Y-63241697D01*
X216768288Y-63236534D01*
X216616502Y-63165105D01*
X216588796Y-63155252D01*
X216585210Y-63155082D01*
X216581896Y-63153710D01*
X216552632Y-63150828D01*
X216266918Y-63150828D01*
X216237654Y-63153710D01*
X216230842Y-63156531D01*
X216223507Y-63157247D01*
X216196329Y-63168475D01*
X216062401Y-63239904D01*
X216044196Y-63252043D01*
X216041542Y-63253356D01*
X216039859Y-63254935D01*
X216037936Y-63256218D01*
X216036051Y-63258509D01*
X216020103Y-63273481D01*
X215895103Y-63416338D01*
X215894783Y-63416785D01*
X215894569Y-63416952D01*
X215894199Y-63417601D01*
X215878001Y-63440259D01*
X215873138Y-63454638D01*
X215865637Y-63467829D01*
X215859488Y-63494999D01*
X215859251Y-63495702D01*
X215859268Y-63495970D01*
X215859147Y-63496509D01*
X215823433Y-63782223D01*
X215823287Y-63787765D01*
X215822663Y-63790038D01*
X215400201Y-63790038D01*
X215366571Y-63760145D01*
X215358420Y-63754221D01*
X215356038Y-63751603D01*
X215349217Y-63747532D01*
X215342784Y-63742857D01*
X215339436Y-63741695D01*
X215330787Y-63736534D01*
X215179002Y-63665105D01*
X215151296Y-63655253D01*
X215147712Y-63655083D01*
X215144396Y-63653710D01*
X215115132Y-63650828D01*
X214900846Y-63650828D01*
X214871582Y-63653710D01*
X214864770Y-63656531D01*
X214857435Y-63657247D01*
X214830257Y-63668475D01*
X214696329Y-63739904D01*
X214678127Y-63752041D01*
X214675471Y-63753355D01*
X214673787Y-63754935D01*
X214671864Y-63756218D01*
X214669979Y-63758509D01*
X214654031Y-63773481D01*
X214591531Y-63844909D01*
X214579036Y-63862385D01*
X214576941Y-63864628D01*
X214575857Y-63866832D01*
X214574429Y-63868830D01*
X214573445Y-63871737D01*
X214563967Y-63891017D01*
X214510397Y-64033874D01*
X214502820Y-64062286D01*
X214503052Y-64069138D01*
X214501234Y-64075752D01*
X214157807Y-64075752D01*
X214121116Y-63782223D01*
X214114626Y-63753542D01*
X214085694Y-63702666D01*
X214039497Y-63666735D01*
X213983064Y-63651216D01*
X213924988Y-63658476D01*
X213904254Y-63670266D01*
X213893287Y-63665105D01*
X213865581Y-63655252D01*
X213861995Y-63655082D01*
X213858681Y-63653710D01*
X213829417Y-63650828D01*
X213543703Y-63650828D01*
X213514439Y-63653710D01*
X213507627Y-63656531D01*
X213500292Y-63657247D01*
X213473114Y-63668475D01*
X213339186Y-63739904D01*
X213320984Y-63752041D01*
X213318328Y-63753355D01*
X213316644Y-63754935D01*
X213314721Y-63756218D01*
X213312836Y-63758509D01*
X213296888Y-63773481D01*
X213234388Y-63844909D01*
X213221893Y-63862385D01*
X213219798Y-63864628D01*
X213218714Y-63866832D01*
X213217286Y-63868830D01*
X213216302Y-63871737D01*
X213206824Y-63891017D01*
X213153254Y-64033874D01*
X213145677Y-64062286D01*
X213145909Y-64069138D01*
X213144091Y-64075752D01*
X212871321Y-64075752D01*
X212871116Y-64067938D01*
X212862188Y-63996510D01*
X212855699Y-63967829D01*
X212854134Y-63965077D01*
X212853612Y-63961957D01*
X212840546Y-63935614D01*
X212751260Y-63792757D01*
X212733306Y-63769469D01*
X212722287Y-63761611D01*
X212713181Y-63751603D01*
X212687930Y-63736534D01*
X212536144Y-63665105D01*
X212508438Y-63655252D01*
X212504852Y-63655082D01*
X212501538Y-63653710D01*
X212472274Y-63650828D01*
X212257988Y-63650828D01*
X212228724Y-63653710D01*
X212221913Y-63656531D01*
X212214576Y-63657247D01*
X212187399Y-63668476D01*
X212053471Y-63739904D01*
X212029006Y-63756219D01*
X211991836Y-63801427D01*
X211974796Y-63857418D01*
X211557755Y-63857418D01*
X211558107Y-63849959D01*
X211538283Y-63794892D01*
X211498895Y-63751603D01*
X211473644Y-63736534D01*
X211321858Y-63665105D01*
X211294152Y-63655252D01*
X211290566Y-63655082D01*
X211287252Y-63653710D01*
X211257988Y-63650828D01*
X210972274Y-63650828D01*
X210943010Y-63653710D01*
X210936198Y-63656531D01*
X210928863Y-63657247D01*
X210901685Y-63668475D01*
X210767757Y-63739904D01*
X210754399Y-63748811D01*
X210750827Y-63750435D01*
X210748946Y-63752447D01*
X210743292Y-63756218D01*
X210727665Y-63775223D01*
X210710869Y-63793200D01*
X210707870Y-63799299D01*
X210706121Y-63801427D01*
X210704978Y-63805181D01*
X210697895Y-63819589D01*
X210644325Y-63962446D01*
X210636748Y-63990858D01*
X210636980Y-63997710D01*
X210635162Y-64004324D01*
X210220307Y-64004324D01*
X210192544Y-63782223D01*
X210186054Y-63753542D01*
X210157122Y-63702666D01*
X210110925Y-63666735D01*
X210054492Y-63651216D01*
X209996416Y-63658476D01*
X209945540Y-63687408D01*
X209944237Y-63689082D01*
X209893287Y-63665105D01*
X209865581Y-63655253D01*
X209861997Y-63655083D01*
X209858681Y-63653710D01*
X209829417Y-63650828D01*
X209615131Y-63650828D01*
X209585867Y-63653710D01*
X209579055Y-63656531D01*
X209571720Y-63657247D01*
X209544542Y-63668475D01*
X209410614Y-63739904D01*
X209397256Y-63748811D01*
X209393684Y-63750435D01*
X209391803Y-63752447D01*
X209386149Y-63756218D01*
X209370522Y-63775223D01*
X209353726Y-63793200D01*
X209350727Y-63799299D01*
X209348978Y-63801427D01*
X209347835Y-63805181D01*
X209340752Y-63819589D01*
X209287182Y-63962446D01*
X209279605Y-63990858D01*
X209279837Y-63997710D01*
X209278019Y-64004324D01*
X208506020Y-64004324D01*
X208474130Y-63749203D01*
X208497620Y-63770083D01*
X208505768Y-63776004D01*
X208508152Y-63778625D01*
X208514977Y-63782697D01*
X208521407Y-63787371D01*
X208524753Y-63788532D01*
X208533404Y-63793694D01*
X208685189Y-63865122D01*
X208712894Y-63874975D01*
X208771357Y-63877733D01*
X208826423Y-63857910D01*
X208869713Y-63818521D01*
X208894634Y-63765564D01*
X208897392Y-63707102D01*
X208877569Y-63652036D01*
X208838180Y-63608746D01*
X208812929Y-63593677D01*
X208680740Y-63531469D01*
X208546019Y-63411719D01*
X208384523Y-63207723D01*
X208381332Y-63204417D01*
X208380336Y-63202666D01*
X208377546Y-63200496D01*
X208364099Y-63186567D01*
X208348358Y-63177794D01*
X208334139Y-63166735D01*
X208323034Y-63163681D01*
X208312975Y-63158075D01*
X208295081Y-63155994D01*
X208277706Y-63151216D01*
X208266276Y-63152644D01*
X208254841Y-63151315D01*
X208237510Y-63156240D01*
X208219630Y-63158476D01*
X208209621Y-63164167D01*
X208198544Y-63167316D01*
X208184413Y-63178503D01*
X208168754Y-63187408D01*
X208161686Y-63196495D01*
X208152655Y-63203645D01*
X208143882Y-63219385D01*
X208132823Y-63233605D01*
X208129769Y-63244709D01*
X208124163Y-63254769D01*
X208122082Y-63272662D01*
X208117304Y-63290038D01*
X208117811Y-63309394D01*
X208117403Y-63312903D01*
X208117953Y-63314840D01*
X208118074Y-63319433D01*
X208284498Y-64650828D01*
X208025845Y-64650828D01*
X207996581Y-64653710D01*
X207942509Y-64676108D01*
X207901125Y-64717492D01*
X207878727Y-64771564D01*
X207601535Y-64771564D01*
X207579137Y-64717492D01*
X207537753Y-64676108D01*
X207483681Y-64653710D01*
X207454417Y-64650828D01*
X207158263Y-64650828D01*
X207045559Y-63749203D01*
X207069049Y-63770083D01*
X207077197Y-63776004D01*
X207079581Y-63778625D01*
X207086406Y-63782697D01*
X207092836Y-63787371D01*
X207096182Y-63788532D01*
X207104833Y-63793694D01*
X207256618Y-63865122D01*
X207284323Y-63874975D01*
X207342786Y-63877733D01*
X207397852Y-63857910D01*
X207441142Y-63818521D01*
X207466063Y-63765564D01*
X207468821Y-63707102D01*
X207448998Y-63652036D01*
X207409609Y-63608746D01*
X207384358Y-63593677D01*
X207252169Y-63531469D01*
X207117448Y-63411719D01*
X206955952Y-63207723D01*
X206952761Y-63204417D01*
X206951765Y-63202666D01*
X206948975Y-63200496D01*
X206935528Y-63186567D01*
X206919787Y-63177794D01*
X206905568Y-63166735D01*
X206894463Y-63163681D01*
X206884404Y-63158075D01*
X206866510Y-63155994D01*
X206849135Y-63151216D01*
X206837705Y-63152644D01*
X206826270Y-63151315D01*
X206808939Y-63156240D01*
X206791059Y-63158476D01*
X206781050Y-63164167D01*
X206769973Y-63167316D01*
X206755842Y-63178503D01*
X206740183Y-63187408D01*
X206733115Y-63196495D01*
X206724084Y-63203645D01*
X206715311Y-63219385D01*
X206704252Y-63233605D01*
X206701198Y-63244709D01*
X206695592Y-63254769D01*
X206693511Y-63272662D01*
X206688733Y-63290038D01*
X206689240Y-63309394D01*
X206688832Y-63312903D01*
X206689382Y-63314840D01*
X206689503Y-63319433D01*
X206855927Y-64650828D01*
X206597274Y-64650828D01*
X206568010Y-64653710D01*
X206513938Y-64676108D01*
X206472554Y-64717492D01*
X206450156Y-64771564D01*
X206172964Y-64771564D01*
X206150566Y-64717492D01*
X206109182Y-64676108D01*
X206055110Y-64653710D01*
X206025846Y-64650828D01*
X205729692Y-64650828D01*
X205616988Y-63749203D01*
X205640478Y-63770083D01*
X205648626Y-63776004D01*
X205651010Y-63778625D01*
X205657835Y-63782697D01*
X205664265Y-63787371D01*
X205667611Y-63788532D01*
X205676262Y-63793694D01*
X205828047Y-63865122D01*
X205855752Y-63874975D01*
X205914215Y-63877733D01*
X205969281Y-63857910D01*
X206012571Y-63818521D01*
X206037492Y-63765564D01*
X206040250Y-63707102D01*
X206020427Y-63652036D01*
X205981038Y-63608746D01*
X205955787Y-63593677D01*
X205823598Y-63531469D01*
X205688877Y-63411719D01*
X205527381Y-63207723D01*
X205524190Y-63204417D01*
X205523194Y-63202666D01*
X205520404Y-63200496D01*
X205506957Y-63186567D01*
X205491216Y-63177794D01*
X205476997Y-63166735D01*
X205465892Y-63163681D01*
X205455833Y-63158075D01*
X205437939Y-63155994D01*
X205420564Y-63151216D01*
X205409134Y-63152644D01*
X205397699Y-63151315D01*
X205380368Y-63156240D01*
X205362488Y-63158476D01*
X205352479Y-63164167D01*
X205341402Y-63167316D01*
X205327271Y-63178503D01*
X205311612Y-63187408D01*
X205304544Y-63196495D01*
X205295513Y-63203645D01*
X205286740Y-63219385D01*
X205275681Y-63233605D01*
X205272627Y-63244709D01*
X205267021Y-63254769D01*
X205264940Y-63272662D01*
X205260162Y-63290038D01*
X205260669Y-63309394D01*
X205260261Y-63312903D01*
X205260811Y-63314840D01*
X205260932Y-63319433D01*
X205427356Y-64650828D01*
X205168703Y-64650828D01*
X205139439Y-64653710D01*
X205085367Y-64676108D01*
X205043983Y-64717492D01*
X205021585Y-64771564D01*
X204815821Y-64771564D01*
X204814110Y-64767434D01*
X204813848Y-64762976D01*
X204802968Y-64740535D01*
X204793423Y-64717492D01*
X204790264Y-64714333D01*
X204788315Y-64710312D01*
X204768357Y-64688716D01*
X203827639Y-63852522D01*
X203752181Y-63687889D01*
X203741771Y-63604606D01*
X203772781Y-63521915D01*
X203799226Y-63491692D01*
X203875846Y-63450828D01*
X204161958Y-63450828D01*
X204263809Y-63498758D01*
X204327978Y-63555797D01*
X204351765Y-63573085D01*
X204407059Y-63592268D01*
X204465484Y-63588831D01*
X204518148Y-63563297D01*
X204557032Y-63519552D01*
X204576215Y-63464258D01*
X204572778Y-63405833D01*
X204547244Y-63353169D01*
X204527286Y-63331573D01*
X204446929Y-63260145D01*
X204438778Y-63254221D01*
X204436396Y-63251603D01*
X204429575Y-63247532D01*
X204423142Y-63242857D01*
X204419794Y-63241695D01*
X204411145Y-63236534D01*
X204259359Y-63165105D01*
X204231653Y-63155252D01*
X204228067Y-63155082D01*
X204224753Y-63153710D01*
X204195489Y-63150828D01*
X203838346Y-63150828D01*
X203809082Y-63153710D01*
X203802271Y-63156531D01*
X203794934Y-63157247D01*
X203767757Y-63168476D01*
X203633829Y-63239904D01*
X203615628Y-63252041D01*
X203612972Y-63253355D01*
X203611287Y-63254936D01*
X203609364Y-63256219D01*
X203607480Y-63258510D01*
X203591532Y-63273481D01*
X203529032Y-63344909D01*
X203516537Y-63362385D01*
X203514443Y-63364627D01*
X203513359Y-63366829D01*
X203511930Y-63368830D01*
X203510945Y-63371740D01*
X203501469Y-63391016D01*
X203447897Y-63533873D01*
X203440320Y-63562286D01*
X203440552Y-63569137D01*
X203438734Y-63575751D01*
X203272067Y-63575751D01*
X203272067Y-62984161D01*
X231770696Y-62984161D01*
X231770696Y-65617495D01*
G37*
D10*
X185009319Y-82906366D02*
X185723604Y-82906366D01*
X185723604Y-82906366D02*
X185866461Y-82858747D01*
X185866461Y-82858747D02*
X185961700Y-82763509D01*
X185961700Y-82763509D02*
X186009319Y-82620652D01*
X186009319Y-82620652D02*
X186009319Y-82525414D01*
X185009319Y-83811128D02*
X185009319Y-83620652D01*
X185009319Y-83620652D02*
X185056938Y-83525414D01*
X185056938Y-83525414D02*
X185104557Y-83477795D01*
X185104557Y-83477795D02*
X185247414Y-83382557D01*
X185247414Y-83382557D02*
X185437890Y-83334938D01*
X185437890Y-83334938D02*
X185818842Y-83334938D01*
X185818842Y-83334938D02*
X185914080Y-83382557D01*
X185914080Y-83382557D02*
X185961700Y-83430176D01*
X185961700Y-83430176D02*
X186009319Y-83525414D01*
X186009319Y-83525414D02*
X186009319Y-83715890D01*
X186009319Y-83715890D02*
X185961700Y-83811128D01*
X185961700Y-83811128D02*
X185914080Y-83858747D01*
X185914080Y-83858747D02*
X185818842Y-83906366D01*
X185818842Y-83906366D02*
X185580747Y-83906366D01*
X185580747Y-83906366D02*
X185485509Y-83858747D01*
X185485509Y-83858747D02*
X185437890Y-83811128D01*
X185437890Y-83811128D02*
X185390271Y-83715890D01*
X185390271Y-83715890D02*
X185390271Y-83525414D01*
X185390271Y-83525414D02*
X185437890Y-83430176D01*
X185437890Y-83430176D02*
X185485509Y-83382557D01*
X185485509Y-83382557D02*
X185580747Y-83334938D01*
%TO.C,J6*%
X187431500Y-84408100D02*
X186415500Y-84408100D01*
X186415500Y-81868100D01*
X187431500Y-81868100D01*
X187431500Y-84408100D01*
X192384500Y-86871900D02*
X186415500Y-86871900D01*
X186415500Y-79328100D01*
X192384500Y-79328100D01*
X192384500Y-86871900D01*
%TD*%
M02*
